<?xml version="1.0" encoding="UTF-8" standalone="no"?>
<!DOCTYPE svg PUBLIC "-//W3C//DTD SVG 1.1//EN"
 "http://www.w3.org/Graphics/SVG/1.1/DTD/svg11.dtd">
<!-- Generated by graphviz version 2.40.1 (20161225.0304)
 -->
<!-- Title: dependency&#45;cruiser output Pages: 1 -->
<svg width="638pt" height="858pt"
 viewBox="0.00 0.00 638.22 857.50" xmlns="http://www.w3.org/2000/svg" xmlns:xlink="http://www.w3.org/1999/xlink">
<g id="graph0" class="graph" transform="scale(1 1) rotate(0) translate(4 853.5)">
<title>dependency&#45;cruiser output</title>
<polygon fill="#ffffff" stroke="transparent" points="-4,4 -4,-853.5 634.2219,-853.5 634.2219,4 -4,4"/>
<g id="clust1" class="cluster">
<title>cluster_/src</title>
<path fill="none" stroke="#000000" stroke-width="2" d="M20,-54.5C20,-54.5 610.2219,-54.5 610.2219,-54.5 616.2219,-54.5 622.2219,-60.5 622.2219,-66.5 622.2219,-66.5 622.2219,-829.5 622.2219,-829.5 622.2219,-835.5 616.2219,-841.5 610.2219,-841.5 610.2219,-841.5 20,-841.5 20,-841.5 14,-841.5 8,-835.5 8,-829.5 8,-829.5 8,-66.5 8,-66.5 8,-60.5 14,-54.5 20,-54.5"/>
<text text-anchor="middle" x="315.111" y="-830.3" font-family="Helvetica,sans-Serif" font-weight="bold" font-size="9.00" fill="#000000">src</text>
</g>
<g id="clust2" class="cluster">
<title>cluster_/src/implementations</title>
<path fill="none" stroke="#000000" stroke-width="2" d="M282.7913,-62.5C282.7913,-62.5 464.0037,-62.5 464.0037,-62.5 470.0037,-62.5 476.0037,-68.5 476.0037,-74.5 476.0037,-74.5 476.0037,-217.5 476.0037,-217.5 476.0037,-223.5 470.0037,-229.5 464.0037,-229.5 464.0037,-229.5 282.7913,-229.5 282.7913,-229.5 276.7913,-229.5 270.7913,-223.5 270.7913,-217.5 270.7913,-217.5 270.7913,-74.5 270.7913,-74.5 270.7913,-68.5 276.7913,-62.5 282.7913,-62.5"/>
<text text-anchor="middle" x="373.3975" y="-218.3" font-family="Helvetica,sans-Serif" font-weight="bold" font-size="9.00" fill="#000000">implementations</text>
</g>
<g id="clust3" class="cluster">
<title>cluster_/src/informationmodel</title>
<path fill="none" stroke="#000000" stroke-width="2" d="M516.6848,-62.5C516.6848,-62.5 602.2219,-62.5 602.2219,-62.5 608.2219,-62.5 614.2219,-68.5 614.2219,-74.5 614.2219,-74.5 614.2219,-391.5 614.2219,-391.5 614.2219,-397.5 608.2219,-403.5 602.2219,-403.5 602.2219,-403.5 516.6848,-403.5 516.6848,-403.5 510.6848,-403.5 504.6848,-397.5 504.6848,-391.5 504.6848,-391.5 504.6848,-74.5 504.6848,-74.5 504.6848,-68.5 510.6848,-62.5 516.6848,-62.5"/>
<text text-anchor="middle" x="559.4534" y="-392.3" font-family="Helvetica,sans-Serif" font-weight="bold" font-size="9.00" fill="#000000">informationmodel</text>
</g>
<g id="clust4" class="cluster">
<title>cluster_/src/interfaces</title>
<path fill="none" stroke="#000000" stroke-width="2" d="M42.2488,-707.5C42.2488,-707.5 127.2805,-707.5 127.2805,-707.5 133.2805,-707.5 139.2805,-713.5 139.2805,-719.5 139.2805,-719.5 139.2805,-804.5 139.2805,-804.5 139.2805,-810.5 133.2805,-816.5 127.2805,-816.5 127.2805,-816.5 42.2488,-816.5 42.2488,-816.5 36.2488,-816.5 30.2488,-810.5 30.2488,-804.5 30.2488,-804.5 30.2488,-719.5 30.2488,-719.5 30.2488,-713.5 36.2488,-707.5 42.2488,-707.5"/>
<text text-anchor="middle" x="84.7646" y="-805.3" font-family="Helvetica,sans-Serif" font-weight="bold" font-size="9.00" fill="#000000">interfaces</text>
</g>
<g id="clust5" class="cluster">
<title>cluster_/src/public</title>
<path fill="none" stroke="#000000" stroke-width="2" d="M28,-237.5C28,-237.5 480.6848,-237.5 480.6848,-237.5 486.6848,-237.5 492.6848,-243.5 492.6848,-249.5 492.6848,-249.5 492.6848,-687.5 492.6848,-687.5 492.6848,-693.5 486.6848,-699.5 480.6848,-699.5 480.6848,-699.5 28,-699.5 28,-699.5 22,-699.5 16,-693.5 16,-687.5 16,-687.5 16,-249.5 16,-249.5 16,-243.5 22,-237.5 28,-237.5"/>
<text text-anchor="middle" x="254.3424" y="-688.3" font-family="Helvetica,sans-Serif" font-weight="bold" font-size="9.00" fill="#000000">public</text>
</g>
<g id="clust6" class="cluster">
<title>cluster_/src/public/js</title>
<path fill="none" stroke="#000000" stroke-width="2" d="M36,-245.5C36,-245.5 472.6848,-245.5 472.6848,-245.5 478.6848,-245.5 484.6848,-251.5 484.6848,-257.5 484.6848,-257.5 484.6848,-662.5 484.6848,-662.5 484.6848,-668.5 478.6848,-674.5 472.6848,-674.5 472.6848,-674.5 36,-674.5 36,-674.5 30,-674.5 24,-668.5 24,-662.5 24,-662.5 24,-257.5 24,-257.5 24,-251.5 30,-245.5 36,-245.5"/>
<text text-anchor="middle" x="254.3424" y="-663.3" font-family="Helvetica,sans-Serif" font-weight="bold" font-size="9.00" fill="#000000">js</text>
</g>
<g id="clust7" class="cluster">
<title>cluster_/src/public/js/lib</title>
<path fill="none" stroke="#000000" stroke-width="2" d="M44,-540.5C44,-540.5 125.5293,-540.5 125.5293,-540.5 131.5293,-540.5 137.5293,-546.5 137.5293,-552.5 137.5293,-552.5 137.5293,-637.5 137.5293,-637.5 137.5293,-643.5 131.5293,-649.5 125.5293,-649.5 125.5293,-649.5 44,-649.5 44,-649.5 38,-649.5 32,-643.5 32,-637.5 32,-637.5 32,-552.5 32,-552.5 32,-546.5 38,-540.5 44,-540.5"/>
<text text-anchor="middle" x="84.7646" y="-638.3" font-family="Helvetica,sans-Serif" font-weight="bold" font-size="9.00" fill="#000000">lib</text>
</g>
<g id="clust8" class="cluster">
<title>cluster_/src/types</title>
<path fill="none" stroke="#000000" stroke-width="2" d="M45.5007,-119.5C45.5007,-119.5 124.0286,-119.5 124.0286,-119.5 130.0286,-119.5 136.0286,-125.5 136.0286,-131.5 136.0286,-131.5 136.0286,-217.5 136.0286,-217.5 136.0286,-223.5 130.0286,-229.5 124.0286,-229.5 124.0286,-229.5 45.5007,-229.5 45.5007,-229.5 39.5007,-229.5 33.5007,-223.5 33.5007,-217.5 33.5007,-217.5 33.5007,-131.5 33.5007,-131.5 33.5007,-125.5 39.5007,-119.5 45.5007,-119.5"/>
<text text-anchor="middle" x="84.7646" y="-218.3" font-family="Helvetica,sans-Serif" font-weight="bold" font-size="9.00" fill="#000000">types</text>
</g>
<g id="clust9" class="cluster">
<title>cluster_/src/types/threejs</title>
<path fill="none" stroke="#000000" stroke-width="2" d="M61.7646,-153.5C61.7646,-153.5 107.7646,-153.5 107.7646,-153.5 113.7646,-153.5 119.7646,-159.5 119.7646,-165.5 119.7646,-165.5 119.7646,-192.5 119.7646,-192.5 119.7646,-198.5 113.7646,-204.5 107.7646,-204.5 107.7646,-204.5 61.7646,-204.5 61.7646,-204.5 55.7646,-204.5 49.7646,-198.5 49.7646,-192.5 49.7646,-192.5 49.7646,-165.5 49.7646,-165.5 49.7646,-159.5 55.7646,-153.5 61.7646,-153.5"/>
<text text-anchor="middle" x="84.7646" y="-193.3" font-family="Helvetica,sans-Serif" font-weight="bold" font-size="9.00" fill="#000000">threejs</text>
</g>
<!-- events -->
<g id="node1" class="node">
<title>events</title>
<path fill="#ffffcc" stroke="#c0c0c0" d="M462.337,-46C462.337,-46 419.6703,-46 419.6703,-46 416.837,-46 414.0037,-43.1667 414.0037,-40.3333 414.0037,-40.3333 414.0037,-34.6667 414.0037,-34.6667 414.0037,-31.8333 416.837,-29 419.6703,-29 419.6703,-29 462.337,-29 462.337,-29 465.1703,-29 468.0037,-31.8333 468.0037,-34.6667 468.0037,-34.6667 468.0037,-40.3333 468.0037,-40.3333 468.0037,-43.1667 465.1703,-46 462.337,-46"/>
<text text-anchor="middle" x="441.0037" y="-34.8" font-family="Helvetica,sans-Serif" font-size="9.00" fill="#c0c0c0">events</text>
</g>
<!-- fs -->
<g id="node2" class="node">
<title>fs</title>
<path fill="#ffffcc" stroke="#c0c0c0" d="M462.337,-17C462.337,-17 419.6703,-17 419.6703,-17 416.837,-17 414.0037,-14.1667 414.0037,-11.3333 414.0037,-11.3333 414.0037,-5.6667 414.0037,-5.6667 414.0037,-2.8333 416.837,0 419.6703,0 419.6703,0 462.337,0 462.337,0 465.1703,0 468.0037,-2.8333 468.0037,-5.6667 468.0037,-5.6667 468.0037,-11.3333 468.0037,-11.3333 468.0037,-14.1667 465.1703,-17 462.337,-17"/>
<text text-anchor="middle" x="441.0037" y="-5.8" font-family="Helvetica,sans-Serif" font-size="9.00" fill="#c0c0c0">fs</text>
</g>
<!-- path -->
<g id="node3" class="node">
<title>path</title>
<path fill="#ffffcc" stroke="#c0c0c0" d="M226.3692,-46C226.3692,-46 183.7026,-46 183.7026,-46 180.8692,-46 178.0359,-43.1667 178.0359,-40.3333 178.0359,-40.3333 178.0359,-34.6667 178.0359,-34.6667 178.0359,-31.8333 180.8692,-29 183.7026,-29 183.7026,-29 226.3692,-29 226.3692,-29 229.2026,-29 232.0359,-31.8333 232.0359,-34.6667 232.0359,-34.6667 232.0359,-40.3333 232.0359,-40.3333 232.0359,-43.1667 229.2026,-46 226.3692,-46"/>
<text text-anchor="middle" x="205.0359" y="-34.8" font-family="Helvetica,sans-Serif" font-size="9.00" fill="#c0c0c0">path</text>
</g>
<!-- src/implementations/Board.ts -->
<g id="node4" class="node">
<title>src/implementations/Board.ts</title>
<g id="a_node4"><a xlink:href="src/implementations/Board.ts" xlink:title="Board.ts">
<path fill="#ffffcc" stroke="#000000" d="M462.337,-166C462.337,-166 419.6703,-166 419.6703,-166 416.837,-166 414.0037,-163.1667 414.0037,-160.3333 414.0037,-160.3333 414.0037,-154.6667 414.0037,-154.6667 414.0037,-151.8333 416.837,-149 419.6703,-149 419.6703,-149 462.337,-149 462.337,-149 465.1703,-149 468.0037,-151.8333 468.0037,-154.6667 468.0037,-154.6667 468.0037,-160.3333 468.0037,-160.3333 468.0037,-163.1667 465.1703,-166 462.337,-166"/>
<text text-anchor="middle" x="441.0037" y="-154.8" font-family="Helvetica,sans-Serif" font-size="9.00" fill="#000000">Board.ts</text>
</a>
</g>
</g>
<!-- src/informationmodel/Colors.ts -->
<g id="node11" class="node">
<title>src/informationmodel/Colors.ts</title>
<g id="a_node11"><a xlink:href="src/informationmodel/Colors.ts" xlink:title="Colors.ts">
<path fill="#ffffcc" stroke="#000000" d="M580.7867,-378C580.7867,-378 538.12,-378 538.12,-378 535.2867,-378 532.4534,-375.1667 532.4534,-372.3333 532.4534,-372.3333 532.4534,-366.6667 532.4534,-366.6667 532.4534,-363.8333 535.2867,-361 538.12,-361 538.12,-361 580.7867,-361 580.7867,-361 583.62,-361 586.4534,-363.8333 586.4534,-366.6667 586.4534,-366.6667 586.4534,-372.3333 586.4534,-372.3333 586.4534,-375.1667 583.62,-378 580.7867,-378"/>
<text text-anchor="middle" x="559.4534" y="-366.8" font-family="Helvetica,sans-Serif" font-size="9.00" fill="#000000">Colors.ts</text>
</a>
</g>
</g>
<!-- src/implementations/Board.ts&#45;&gt;src/informationmodel/Colors.ts -->
<g id="edge1" class="edge">
<title>src/implementations/Board.ts&#45;&gt;src/informationmodel/Colors.ts</title>
<path fill="none" stroke="#000000" d="M461.1221,-166.1035C472.4272,-172.0604 485.6444,-181.1509 492.6848,-193.5 510.5637,-224.8601 481.5058,-327.8261 504.6848,-355.5 509.2151,-360.9089 515.5202,-364.3839 522.2458,-366.5847"/>
<polygon fill="#000000" stroke="#000000" points="521.7033,-370.0536 532.243,-368.9743 523.3307,-363.2454 521.7033,-370.0536"/>
</g>
<!-- src/implementations/Game.ts -->
<g id="node5" class="node">
<title>src/implementations/Game.ts</title>
<g id="a_node5"><a xlink:href="src/implementations/Game.ts" xlink:title="Game.ts">
<path fill="#ffffcc" stroke="#000000" d="M345.3902,-204C345.3902,-204 302.7236,-204 302.7236,-204 299.8902,-204 297.0569,-201.1667 297.0569,-198.3333 297.0569,-198.3333 297.0569,-192.6667 297.0569,-192.6667 297.0569,-189.8333 299.8902,-187 302.7236,-187 302.7236,-187 345.3902,-187 345.3902,-187 348.2236,-187 351.0569,-189.8333 351.0569,-192.6667 351.0569,-192.6667 351.0569,-198.3333 351.0569,-198.3333 351.0569,-201.1667 348.2236,-204 345.3902,-204"/>
<text text-anchor="middle" x="324.0569" y="-192.8" font-family="Helvetica,sans-Serif" font-size="9.00" fill="#000000">Game.ts</text>
</a>
</g>
</g>
<!-- src/implementations/GameModel.ts -->
<g id="node6" class="node">
<title>src/implementations/GameModel.ts</title>
<g id="a_node6"><a xlink:href="src/implementations/GameModel.ts" xlink:title="GameModel.ts">
<path fill="#ffffcc" stroke="#000000" d="M355.4137,-88C355.4137,-88 292.7001,-88 292.7001,-88 289.8667,-88 287.0334,-85.1667 287.0334,-82.3333 287.0334,-82.3333 287.0334,-76.6667 287.0334,-76.6667 287.0334,-73.8333 289.8667,-71 292.7001,-71 292.7001,-71 355.4137,-71 355.4137,-71 358.247,-71 361.0804,-73.8333 361.0804,-76.6667 361.0804,-76.6667 361.0804,-82.3333 361.0804,-82.3333 361.0804,-85.1667 358.247,-88 355.4137,-88"/>
<text text-anchor="middle" x="324.0569" y="-76.8" font-family="Helvetica,sans-Serif" font-size="9.00" fill="#000000">GameModel.ts</text>
</a>
</g>
</g>
<!-- src/implementations/GameModel.ts&#45;&gt;src/implementations/Board.ts -->
<g id="edge2" class="edge">
<title>src/implementations/GameModel.ts&#45;&gt;src/implementations/Board.ts</title>
<path fill="none" stroke="#000000" d="M355.4501,-88.0701C360.2371,-89.8933 365.013,-92.0296 369.3225,-94.5 391.4312,-107.1736 412.8495,-127.3606 426.4257,-141.4574"/>
<polygon fill="#000000" stroke="#000000" points="424.0633,-144.0546 433.459,-148.9507 429.1673,-139.264 424.0633,-144.0546"/>
</g>
<!-- src/implementations/Player.ts -->
<g id="node8" class="node">
<title>src/implementations/Player.ts</title>
<g id="a_node8"><a xlink:href="src/implementations/Player.ts" xlink:title="Player.ts">
<path fill="#ffffcc" stroke="#000000" d="M462.337,-88C462.337,-88 419.6703,-88 419.6703,-88 416.837,-88 414.0037,-85.1667 414.0037,-82.3333 414.0037,-82.3333 414.0037,-76.6667 414.0037,-76.6667 414.0037,-73.8333 416.837,-71 419.6703,-71 419.6703,-71 462.337,-71 462.337,-71 465.1703,-71 468.0037,-73.8333 468.0037,-76.6667 468.0037,-76.6667 468.0037,-82.3333 468.0037,-82.3333 468.0037,-85.1667 465.1703,-88 462.337,-88"/>
<text text-anchor="middle" x="441.0037" y="-76.8" font-family="Helvetica,sans-Serif" font-size="9.00" fill="#000000">Player.ts</text>
</a>
</g>
</g>
<!-- src/implementations/GameModel.ts&#45;&gt;src/implementations/Player.ts -->
<g id="edge3" class="edge">
<title>src/implementations/GameModel.ts&#45;&gt;src/implementations/Player.ts</title>
<path fill="none" stroke="#000000" d="M361.3811,-79.5C374.7786,-79.5 389.8879,-79.5 403.316,-79.5"/>
<polygon fill="#000000" stroke="#000000" points="403.6599,-83.0001 413.6598,-79.5 403.6598,-76.0001 403.6599,-83.0001"/>
</g>
<!-- src/implementations/ModelBuilder.ts -->
<g id="node7" class="node">
<title>src/implementations/ModelBuilder.ts</title>
<g id="a_node7"><a xlink:href="src/implementations/ModelBuilder.ts" xlink:title="ModelBuilder.ts">
<path fill="#ffffcc" stroke="#000000" d="M356.9282,-175C356.9282,-175 291.1856,-175 291.1856,-175 288.3522,-175 285.5189,-172.1667 285.5189,-169.3333 285.5189,-169.3333 285.5189,-163.6667 285.5189,-163.6667 285.5189,-160.8333 288.3522,-158 291.1856,-158 291.1856,-158 356.9282,-158 356.9282,-158 359.7615,-158 362.5949,-160.8333 362.5949,-163.6667 362.5949,-163.6667 362.5949,-169.3333 362.5949,-169.3333 362.5949,-172.1667 359.7615,-175 356.9282,-175"/>
<text text-anchor="middle" x="324.0569" y="-163.8" font-family="Helvetica,sans-Serif" font-size="9.00" fill="#000000">ModelBuilder.ts</text>
</a>
</g>
</g>
<!-- src/implementations/ModelBuilder.ts&#45;&gt;fs -->
<g id="edge5" class="edge">
<title>src/implementations/ModelBuilder.ts&#45;&gt;fs</title>
<path fill="none" stroke="#c0c0c0" d="M362.3191,-157.9607C364.8824,-156.4291 367.26,-154.6249 369.3225,-152.5 411.0788,-109.4804 365.1851,-67.0338 405.3225,-22.5 405.4729,-22.3332 405.6255,-22.1683 405.7802,-22.0054"/>
<polygon fill="#c0c0c0" stroke="#c0c0c0" points="408.0094,-24.7085 413.9092,-15.9083 403.8092,-19.1086 408.0094,-24.7085"/>
</g>
<!-- src/implementations/ModelBuilder.ts&#45;&gt;src/informationmodel/Colors.ts -->
<g id="edge4" class="edge">
<title>src/implementations/ModelBuilder.ts&#45;&gt;src/informationmodel/Colors.ts</title>
<path fill="none" stroke="#000000" d="M362.8015,-172.3012C402.5762,-180.4892 462.7561,-199.5586 492.6848,-242.5 521.5629,-283.934 471.6431,-317.3037 504.6848,-355.5 509.3007,-360.836 515.6433,-364.2791 522.3786,-366.4717"/>
<polygon fill="#000000" stroke="#000000" points="521.8324,-369.9398 532.3725,-368.8641 523.4621,-363.1321 521.8324,-369.9398"/>
</g>
<!-- src/implementations/ServerAdapter.ts -->
<g id="node9" class="node">
<title>src/implementations/ServerAdapter.ts</title>
<g id="a_node9"><a xlink:href="src/implementations/ServerAdapter.ts" xlink:title="ServerAdapter.ts">
<path fill="#ffffcc" stroke="#000000" d="M359.9288,-117C359.9288,-117 288.185,-117 288.185,-117 285.3516,-117 282.5183,-114.1667 282.5183,-111.3333 282.5183,-111.3333 282.5183,-105.6667 282.5183,-105.6667 282.5183,-102.8333 285.3516,-100 288.185,-100 288.185,-100 359.9288,-100 359.9288,-100 362.7621,-100 365.5955,-102.8333 365.5955,-105.6667 365.5955,-105.6667 365.5955,-111.3333 365.5955,-111.3333 365.5955,-114.1667 362.7621,-117 359.9288,-117"/>
<text text-anchor="middle" x="324.0569" y="-105.8" font-family="Helvetica,sans-Serif" font-size="9.00" fill="#000000">ServerAdapter.ts</text>
</a>
</g>
</g>
<!-- src/implementations/ServerController.ts -->
<g id="node10" class="node">
<title>src/implementations/ServerController.ts</title>
<g id="a_node10"><a xlink:href="src/implementations/ServerController.ts" xlink:title="ServerController.ts">
<path fill="#ffffcc" stroke="#000000" d="M363.4227,-146C363.4227,-146 284.6911,-146 284.6911,-146 281.8578,-146 279.0244,-143.1667 279.0244,-140.3333 279.0244,-140.3333 279.0244,-134.6667 279.0244,-134.6667 279.0244,-131.8333 281.8578,-129 284.6911,-129 284.6911,-129 363.4227,-129 363.4227,-129 366.256,-129 369.0893,-131.8333 369.0893,-134.6667 369.0893,-134.6667 369.0893,-140.3333 369.0893,-140.3333 369.0893,-143.1667 366.256,-146 363.4227,-146"/>
<text text-anchor="middle" x="324.0569" y="-134.8" font-family="Helvetica,sans-Serif" font-size="9.00" fill="#000000">ServerController.ts</text>
</a>
</g>
</g>
<!-- src/informationmodel/IActionBoardInfo.ts -->
<g id="node12" class="node">
<title>src/informationmodel/IActionBoardInfo.ts</title>
<g id="a_node12"><a xlink:href="src/informationmodel/IActionBoardInfo.ts" xlink:title="IActionBoardInfo.ts">
<path fill="#ffffcc" stroke="#000000" d="M599.8297,-349C599.8297,-349 519.0771,-349 519.0771,-349 516.2437,-349 513.4104,-346.1667 513.4104,-343.3333 513.4104,-343.3333 513.4104,-337.6667 513.4104,-337.6667 513.4104,-334.8333 516.2437,-332 519.0771,-332 519.0771,-332 599.8297,-332 599.8297,-332 602.663,-332 605.4963,-334.8333 605.4963,-337.6667 605.4963,-337.6667 605.4963,-343.3333 605.4963,-343.3333 605.4963,-346.1667 602.663,-349 599.8297,-349"/>
<text text-anchor="middle" x="559.4534" y="-337.8" font-family="Helvetica,sans-Serif" font-size="9.00" fill="#000000">IActionBoardInfo.ts</text>
</a>
</g>
</g>
<!-- src/informationmodel/IActionFigureInfo.ts -->
<g id="node13" class="node">
<title>src/informationmodel/IActionFigureInfo.ts</title>
<g id="a_node13"><a xlink:href="src/informationmodel/IActionFigureInfo.ts" xlink:title="IActionFigureInfo.ts">
<path fill="#ffffcc" stroke="#000000" d="M600.325,-320C600.325,-320 518.5818,-320 518.5818,-320 515.7485,-320 512.9151,-317.1667 512.9151,-314.3333 512.9151,-314.3333 512.9151,-308.6667 512.9151,-308.6667 512.9151,-305.8333 515.7485,-303 518.5818,-303 518.5818,-303 600.325,-303 600.325,-303 603.1583,-303 605.9916,-305.8333 605.9916,-308.6667 605.9916,-308.6667 605.9916,-314.3333 605.9916,-314.3333 605.9916,-317.1667 603.1583,-320 600.325,-320"/>
<text text-anchor="middle" x="559.4534" y="-308.8" font-family="Helvetica,sans-Serif" font-size="9.00" fill="#000000">IActionFigureInfo.ts</text>
</a>
</g>
</g>
<!-- src/informationmodel/IBoardInfo.ts -->
<g id="node14" class="node">
<title>src/informationmodel/IBoardInfo.ts</title>
<g id="a_node14"><a xlink:href="src/informationmodel/IBoardInfo.ts" xlink:title="IBoardInfo.ts">
<path fill="#ffffcc" stroke="#000000" d="M587.316,-291C587.316,-291 531.5907,-291 531.5907,-291 528.7574,-291 525.9241,-288.1667 525.9241,-285.3333 525.9241,-285.3333 525.9241,-279.6667 525.9241,-279.6667 525.9241,-276.8333 528.7574,-274 531.5907,-274 531.5907,-274 587.316,-274 587.316,-274 590.1493,-274 592.9827,-276.8333 592.9827,-279.6667 592.9827,-279.6667 592.9827,-285.3333 592.9827,-285.3333 592.9827,-288.1667 590.1493,-291 587.316,-291"/>
<text text-anchor="middle" x="559.4534" y="-279.8" font-family="Helvetica,sans-Serif" font-size="9.00" fill="#000000">IBoardInfo.ts</text>
</a>
</g>
</g>
<!-- src/informationmodel/ICursorInfo.ts -->
<g id="node15" class="node">
<title>src/informationmodel/ICursorInfo.ts</title>
<g id="a_node15"><a xlink:href="src/informationmodel/ICursorInfo.ts" xlink:title="ICursorInfo.ts">
<path fill="#ffffcc" stroke="#000000" d="M588.8043,-262C588.8043,-262 530.1025,-262 530.1025,-262 527.2691,-262 524.4358,-259.1667 524.4358,-256.3333 524.4358,-256.3333 524.4358,-250.6667 524.4358,-250.6667 524.4358,-247.8333 527.2691,-245 530.1025,-245 530.1025,-245 588.8043,-245 588.8043,-245 591.6376,-245 594.4709,-247.8333 594.4709,-250.6667 594.4709,-250.6667 594.4709,-256.3333 594.4709,-256.3333 594.4709,-259.1667 591.6376,-262 588.8043,-262"/>
<text text-anchor="middle" x="559.4534" y="-250.8" font-family="Helvetica,sans-Serif" font-size="9.00" fill="#000000">ICursorInfo.ts</text>
</a>
</g>
</g>
<!-- src/informationmodel/IFieldInfo.ts -->
<g id="node16" class="node">
<title>src/informationmodel/IFieldInfo.ts</title>
<g id="a_node16"><a xlink:href="src/informationmodel/IFieldInfo.ts" xlink:title="IFieldInfo.ts">
<path fill="#ffffcc" stroke="#000000" d="M584.809,-233C584.809,-233 534.0977,-233 534.0977,-233 531.2644,-233 528.431,-230.1667 528.431,-227.3333 528.431,-227.3333 528.431,-221.6667 528.431,-221.6667 528.431,-218.8333 531.2644,-216 534.0977,-216 534.0977,-216 584.809,-216 584.809,-216 587.6424,-216 590.4757,-218.8333 590.4757,-221.6667 590.4757,-221.6667 590.4757,-227.3333 590.4757,-227.3333 590.4757,-230.1667 587.6424,-233 584.809,-233"/>
<text text-anchor="middle" x="559.4534" y="-221.8" font-family="Helvetica,sans-Serif" font-size="9.00" fill="#000000">IFieldInfo.ts</text>
</a>
</g>
</g>
<!-- src/informationmodel/IFigureInfo.ts -->
<g id="node17" class="node">
<title>src/informationmodel/IFigureInfo.ts</title>
<g id="a_node17"><a xlink:href="src/informationmodel/IFigureInfo.ts" xlink:title="IFigureInfo.ts">
<path fill="#ffffcc" stroke="#000000" d="M587.8118,-204C587.8118,-204 531.095,-204 531.095,-204 528.2616,-204 525.4283,-201.1667 525.4283,-198.3333 525.4283,-198.3333 525.4283,-192.6667 525.4283,-192.6667 525.4283,-189.8333 528.2616,-187 531.095,-187 531.095,-187 587.8118,-187 587.8118,-187 590.6451,-187 593.4785,-189.8333 593.4785,-192.6667 593.4785,-192.6667 593.4785,-198.3333 593.4785,-198.3333 593.4785,-201.1667 590.6451,-204 587.8118,-204"/>
<text text-anchor="middle" x="559.4534" y="-192.8" font-family="Helvetica,sans-Serif" font-size="9.00" fill="#000000">IFigureInfo.ts</text>
</a>
</g>
</g>
<!-- src/informationmodel/IPlantInfo.ts -->
<g id="node18" class="node">
<title>src/informationmodel/IPlantInfo.ts</title>
<g id="a_node18"><a xlink:href="src/informationmodel/IPlantInfo.ts" xlink:title="IPlantInfo.ts">
<path fill="#ffffcc" stroke="#000000" d="M585.3153,-175C585.3153,-175 533.5914,-175 533.5914,-175 530.7581,-175 527.9248,-172.1667 527.9248,-169.3333 527.9248,-169.3333 527.9248,-163.6667 527.9248,-163.6667 527.9248,-160.8333 530.7581,-158 533.5914,-158 533.5914,-158 585.3153,-158 585.3153,-158 588.1486,-158 590.982,-160.8333 590.982,-163.6667 590.982,-163.6667 590.982,-169.3333 590.982,-169.3333 590.982,-172.1667 588.1486,-175 585.3153,-175"/>
<text text-anchor="middle" x="559.4534" y="-163.8" font-family="Helvetica,sans-Serif" font-size="9.00" fill="#000000">IPlantInfo.ts</text>
</a>
</g>
</g>
<!-- src/informationmodel/IPlayerInfo.ts -->
<g id="node19" class="node">
<title>src/informationmodel/IPlayerInfo.ts</title>
<g id="a_node19"><a xlink:href="src/informationmodel/IPlayerInfo.ts" xlink:title="IPlayerInfo.ts">
<path fill="#ffffcc" stroke="#000000" d="M587.8118,-146C587.8118,-146 531.095,-146 531.095,-146 528.2616,-146 525.4283,-143.1667 525.4283,-140.3333 525.4283,-140.3333 525.4283,-134.6667 525.4283,-134.6667 525.4283,-131.8333 528.2616,-129 531.095,-129 531.095,-129 587.8118,-129 587.8118,-129 590.6451,-129 593.4785,-131.8333 593.4785,-134.6667 593.4785,-134.6667 593.4785,-140.3333 593.4785,-140.3333 593.4785,-143.1667 590.6451,-146 587.8118,-146"/>
<text text-anchor="middle" x="559.4534" y="-134.8" font-family="Helvetica,sans-Serif" font-size="9.00" fill="#000000">IPlayerInfo.ts</text>
</a>
</g>
</g>
<!-- src/informationmodel/ISettingsInfo.ts -->
<g id="node20" class="node">
<title>src/informationmodel/ISettingsInfo.ts</title>
<g id="a_node20"><a xlink:href="src/informationmodel/ISettingsInfo.ts" xlink:title="ISettingsInfo.ts">
<path fill="#ffffcc" stroke="#000000" d="M591.3209,-117C591.3209,-117 527.5859,-117 527.5859,-117 524.7526,-117 521.9192,-114.1667 521.9192,-111.3333 521.9192,-111.3333 521.9192,-105.6667 521.9192,-105.6667 521.9192,-102.8333 524.7526,-100 527.5859,-100 527.5859,-100 591.3209,-100 591.3209,-100 594.1542,-100 596.9875,-102.8333 596.9875,-105.6667 596.9875,-105.6667 596.9875,-111.3333 596.9875,-111.3333 596.9875,-114.1667 594.1542,-117 591.3209,-117"/>
<text text-anchor="middle" x="559.4534" y="-105.8" font-family="Helvetica,sans-Serif" font-size="9.00" fill="#000000">ISettingsInfo.ts</text>
</a>
</g>
</g>
<!-- src/informationmodel/ISpell.ts -->
<g id="node21" class="node">
<title>src/informationmodel/ISpell.ts</title>
<g id="a_node21"><a xlink:href="src/informationmodel/ISpell.ts" xlink:title="ISpell.ts">
<path fill="#ffffcc" stroke="#000000" d="M580.7867,-88C580.7867,-88 538.12,-88 538.12,-88 535.2867,-88 532.4534,-85.1667 532.4534,-82.3333 532.4534,-82.3333 532.4534,-76.6667 532.4534,-76.6667 532.4534,-73.8333 535.2867,-71 538.12,-71 538.12,-71 580.7867,-71 580.7867,-71 583.62,-71 586.4534,-73.8333 586.4534,-76.6667 586.4534,-76.6667 586.4534,-82.3333 586.4534,-82.3333 586.4534,-85.1667 583.62,-88 580.7867,-88"/>
<text text-anchor="middle" x="559.4534" y="-76.8" font-family="Helvetica,sans-Serif" font-size="9.00" fill="#000000">ISpell.ts</text>
</a>
</g>
</g>
<!-- src/interfaces/IGameModel.ts -->
<g id="node22" class="node">
<title>src/interfaces/IGameModel.ts</title>
<g id="a_node22"><a xlink:href="src/interfaces/IGameModel.ts" xlink:title="IGameModel.ts">
<path fill="#ffffcc" stroke="#000000" d="M117.6204,-791C117.6204,-791 51.9089,-791 51.9089,-791 49.0755,-791 46.2422,-788.1667 46.2422,-785.3333 46.2422,-785.3333 46.2422,-779.6667 46.2422,-779.6667 46.2422,-776.8333 49.0755,-774 51.9089,-774 51.9089,-774 117.6204,-774 117.6204,-774 120.4538,-774 123.2871,-776.8333 123.2871,-779.6667 123.2871,-779.6667 123.2871,-785.3333 123.2871,-785.3333 123.2871,-788.1667 120.4538,-791 117.6204,-791"/>
<text text-anchor="middle" x="84.7646" y="-779.8" font-family="Helvetica,sans-Serif" font-size="9.00" fill="#000000">IGameModel.ts</text>
</a>
</g>
</g>
<!-- src/interfaces/IServerAdapter.ts -->
<g id="node23" class="node">
<title>src/interfaces/IServerAdapter.ts</title>
<g id="a_node23"><a xlink:href="src/interfaces/IServerAdapter.ts" xlink:title="IServerAdapter.ts">
<path fill="#ffffcc" stroke="#000000" d="M121.6383,-762C121.6383,-762 47.891,-762 47.891,-762 45.0577,-762 42.2244,-759.1667 42.2244,-756.3333 42.2244,-756.3333 42.2244,-750.6667 42.2244,-750.6667 42.2244,-747.8333 45.0577,-745 47.891,-745 47.891,-745 121.6383,-745 121.6383,-745 124.4716,-745 127.3049,-747.8333 127.3049,-750.6667 127.3049,-750.6667 127.3049,-756.3333 127.3049,-756.3333 127.3049,-759.1667 124.4716,-762 121.6383,-762"/>
<text text-anchor="middle" x="84.7646" y="-750.8" font-family="Helvetica,sans-Serif" font-size="9.00" fill="#000000">IServerAdapter.ts</text>
</a>
</g>
</g>
<!-- src/interfaces/IServerController.ts -->
<g id="node24" class="node">
<title>src/interfaces/IServerController.ts</title>
<g id="a_node24"><a xlink:href="src/interfaces/IServerController.ts" xlink:title="IServerController.ts">
<path fill="#ffffcc" stroke="#000000" d="M125.6297,-733C125.6297,-733 43.8996,-733 43.8996,-733 41.0662,-733 38.2329,-730.1667 38.2329,-727.3333 38.2329,-727.3333 38.2329,-721.6667 38.2329,-721.6667 38.2329,-718.8333 41.0662,-716 43.8996,-716 43.8996,-716 125.6297,-716 125.6297,-716 128.4631,-716 131.2964,-718.8333 131.2964,-721.6667 131.2964,-721.6667 131.2964,-727.3333 131.2964,-727.3333 131.2964,-730.1667 128.4631,-733 125.6297,-733"/>
<text text-anchor="middle" x="84.7646" y="-721.8" font-family="Helvetica,sans-Serif" font-size="9.00" fill="#000000">IServerController.ts</text>
</a>
</g>
</g>
<!-- src/public/js/BoardView.ts -->
<g id="node25" class="node">
<title>src/public/js/BoardView.ts</title>
<g id="a_node25"><a xlink:href="src/public/js/BoardView.ts" xlink:title="BoardView.ts">
<path fill="#ffffcc" stroke="#000000" d="M469.712,-401C469.712,-401 412.2953,-401 412.2953,-401 409.4619,-401 406.6286,-398.1667 406.6286,-395.3333 406.6286,-395.3333 406.6286,-389.6667 406.6286,-389.6667 406.6286,-386.8333 409.4619,-384 412.2953,-384 412.2953,-384 469.712,-384 469.712,-384 472.5454,-384 475.3787,-386.8333 475.3787,-389.6667 475.3787,-389.6667 475.3787,-395.3333 475.3787,-395.3333 475.3787,-398.1667 472.5454,-401 469.712,-401"/>
<text text-anchor="middle" x="441.0037" y="-389.8" font-family="Helvetica,sans-Serif" font-size="9.00" fill="#000000">BoardView.ts</text>
</a>
</g>
</g>
<!-- src/public/js/Camera.ts -->
<g id="node26" class="node">
<title>src/public/js/Camera.ts</title>
<g id="a_node26"><a xlink:href="src/public/js/Camera.ts" xlink:title="Camera.ts">
<path fill="#ffffcc" stroke="#000000" d="M107.6108,-532C107.6108,-532 61.9185,-532 61.9185,-532 59.0852,-532 56.2518,-529.1667 56.2518,-526.3333 56.2518,-526.3333 56.2518,-520.6667 56.2518,-520.6667 56.2518,-517.8333 59.0852,-515 61.9185,-515 61.9185,-515 107.6108,-515 107.6108,-515 110.4441,-515 113.2775,-517.8333 113.2775,-520.6667 113.2775,-520.6667 113.2775,-526.3333 113.2775,-526.3333 113.2775,-529.1667 110.4441,-532 107.6108,-532"/>
<text text-anchor="middle" x="84.7646" y="-520.8" font-family="Helvetica,sans-Serif" font-size="9.00" fill="#000000">Camera.ts</text>
</a>
</g>
</g>
<!-- src/public/js/Client.ts -->
<g id="node27" class="node">
<title>src/public/js/Client.ts</title>
<g id="a_node27"><a xlink:href="src/public/js/Client.ts" xlink:title="Client.ts">
<path fill="#ffffcc" stroke="#000000" d="M226.3692,-271C226.3692,-271 183.7026,-271 183.7026,-271 180.8692,-271 178.0359,-268.1667 178.0359,-265.3333 178.0359,-265.3333 178.0359,-259.6667 178.0359,-259.6667 178.0359,-256.8333 180.8692,-254 183.7026,-254 183.7026,-254 226.3692,-254 226.3692,-254 229.2026,-254 232.0359,-256.8333 232.0359,-259.6667 232.0359,-259.6667 232.0359,-265.3333 232.0359,-265.3333 232.0359,-268.1667 229.2026,-271 226.3692,-271"/>
<text text-anchor="middle" x="205.0359" y="-259.8" font-family="Helvetica,sans-Serif" font-size="9.00" fill="#000000">Client.ts</text>
</a>
</g>
</g>
<!-- src/public/js/View.ts -->
<g id="node41" class="node">
<title>src/public/js/View.ts</title>
<g id="a_node41"><a xlink:href="src/public/js/View.ts" xlink:title="View.ts">
<path fill="#ffffcc" stroke="#000000" d="M345.3902,-271C345.3902,-271 302.7236,-271 302.7236,-271 299.8902,-271 297.0569,-268.1667 297.0569,-265.3333 297.0569,-265.3333 297.0569,-259.6667 297.0569,-259.6667 297.0569,-256.8333 299.8902,-254 302.7236,-254 302.7236,-254 345.3902,-254 345.3902,-254 348.2236,-254 351.0569,-256.8333 351.0569,-259.6667 351.0569,-259.6667 351.0569,-265.3333 351.0569,-265.3333 351.0569,-268.1667 348.2236,-271 345.3902,-271"/>
<text text-anchor="middle" x="324.0569" y="-259.8" font-family="Helvetica,sans-Serif" font-size="9.00" fill="#000000">View.ts</text>
</a>
</g>
</g>
<!-- src/public/js/Client.ts&#45;&gt;src/public/js/View.ts -->
<g id="edge6" class="edge">
<title>src/public/js/Client.ts&#45;&gt;src/public/js/View.ts</title>
<path fill="none" stroke="#000000" d="M232.0436,-262.5C248.2117,-262.5 268.9971,-262.5 286.7206,-262.5"/>
<polygon fill="#000000" stroke="#000000" points="286.7441,-266.0001 296.7441,-262.5 286.744,-259.0001 286.7441,-266.0001"/>
</g>
<!-- src/public/js/ClientAdapter.ts -->
<g id="node28" class="node">
<title>src/public/js/ClientAdapter.ts</title>
<g id="a_node28"><a xlink:href="src/public/js/ClientAdapter.ts" xlink:title="ClientAdapter.ts">
<path fill="#ffffcc" stroke="#000000" d="M357.9321,-300C357.9321,-300 290.1817,-300 290.1817,-300 287.3484,-300 284.515,-297.1667 284.515,-294.3333 284.515,-294.3333 284.515,-288.6667 284.515,-288.6667 284.515,-285.8333 287.3484,-283 290.1817,-283 290.1817,-283 357.9321,-283 357.9321,-283 360.7654,-283 363.5987,-285.8333 363.5987,-288.6667 363.5987,-288.6667 363.5987,-294.3333 363.5987,-294.3333 363.5987,-297.1667 360.7654,-300 357.9321,-300"/>
<text text-anchor="middle" x="324.0569" y="-288.8" font-family="Helvetica,sans-Serif" font-size="9.00" fill="#000000">ClientAdapter.ts</text>
</a>
</g>
</g>
<!-- src/public/js/ClientController.ts -->
<g id="node29" class="node">
<title>src/public/js/ClientController.ts</title>
<g id="a_node29"><a xlink:href="src/public/js/ClientController.ts" xlink:title="ClientController.ts">
<path fill="#ffffcc" stroke="#000000" d="M361.9234,-329C361.9234,-329 286.1903,-329 286.1903,-329 283.357,-329 280.5237,-326.1667 280.5237,-323.3333 280.5237,-323.3333 280.5237,-317.6667 280.5237,-317.6667 280.5237,-314.8333 283.357,-312 286.1903,-312 286.1903,-312 361.9234,-312 361.9234,-312 364.7568,-312 367.5901,-314.8333 367.5901,-317.6667 367.5901,-317.6667 367.5901,-323.3333 367.5901,-323.3333 367.5901,-326.1667 364.7568,-329 361.9234,-329"/>
<text text-anchor="middle" x="324.0569" y="-317.8" font-family="Helvetica,sans-Serif" font-size="9.00" fill="#000000">ClientController.ts</text>
</a>
</g>
</g>
<!-- src/public/js/ClientController.ts&#45;&gt;events -->
<g id="edge7" class="edge">
<title>src/public/js/ClientController.ts&#45;&gt;events</title>
<path fill="none" stroke="#c0c0c0" d="M363.037,-311.9694C365.3704,-310.4325 367.5042,-308.625 369.3225,-306.5 441.449,-222.2092 344.3864,-152.2036 405.3225,-59.5 407.1613,-56.7026 409.4914,-54.2002 412.0767,-51.977"/>
<polygon fill="#c0c0c0" stroke="#c0c0c0" points="414.2103,-54.7552 420.3629,-46.1299 410.1744,-49.0358 414.2103,-54.7552"/>
</g>
<!-- src/public/js/ClientFabrik.ts -->
<g id="node30" class="node">
<title>src/public/js/ClientFabrik.ts</title>
<g id="a_node30"><a xlink:href="src/public/js/ClientFabrik.ts" xlink:title="ClientFabrik.ts">
<path fill="#ffffcc" stroke="#000000" d="M235.8864,-329C235.8864,-329 174.1853,-329 174.1853,-329 171.352,-329 168.5187,-326.1667 168.5187,-323.3333 168.5187,-323.3333 168.5187,-317.6667 168.5187,-317.6667 168.5187,-314.8333 171.352,-312 174.1853,-312 174.1853,-312 235.8864,-312 235.8864,-312 238.7198,-312 241.5531,-314.8333 241.5531,-317.6667 241.5531,-317.6667 241.5531,-323.3333 241.5531,-323.3333 241.5531,-326.1667 238.7198,-329 235.8864,-329"/>
<text text-anchor="middle" x="205.0359" y="-317.8" font-family="Helvetica,sans-Serif" font-size="9.00" fill="#000000">ClientFabrik.ts</text>
</a>
</g>
</g>
<!-- src/public/js/ClientFabrik.ts&#45;&gt;src/public/js/ClientAdapter.ts -->
<g id="edge8" class="edge">
<title>src/public/js/ClientFabrik.ts&#45;&gt;src/public/js/ClientAdapter.ts</title>
<path fill="none" stroke="#000000" d="M240.1024,-311.9559C252.2223,-309.0028 265.9794,-305.6509 278.7989,-302.5273"/>
<polygon fill="#000000" stroke="#000000" points="279.9426,-305.8511 288.8298,-300.0832 278.2854,-299.0501 279.9426,-305.8511"/>
</g>
<!-- src/public/js/ClientFabrik.ts&#45;&gt;src/public/js/ClientController.ts -->
<g id="edge9" class="edge">
<title>src/public/js/ClientFabrik.ts&#45;&gt;src/public/js/ClientController.ts</title>
<path fill="none" stroke="#000000" d="M241.7173,-320.5C250.6458,-320.5 260.3824,-320.5 269.9324,-320.5"/>
<polygon fill="#000000" stroke="#000000" points="270.175,-324.0001 280.175,-320.5 270.175,-317.0001 270.175,-324.0001"/>
</g>
<!-- src/public/js/Cursor.ts -->
<g id="node31" class="node">
<title>src/public/js/Cursor.ts</title>
<g id="a_node31"><a xlink:href="src/public/js/Cursor.ts" xlink:title="Cursor.ts">
<path fill="#ffffcc" stroke="#000000" d="M345.3902,-358C345.3902,-358 302.7236,-358 302.7236,-358 299.8902,-358 297.0569,-355.1667 297.0569,-352.3333 297.0569,-352.3333 297.0569,-346.6667 297.0569,-346.6667 297.0569,-343.8333 299.8902,-341 302.7236,-341 302.7236,-341 345.3902,-341 345.3902,-341 348.2236,-341 351.0569,-343.8333 351.0569,-346.6667 351.0569,-346.6667 351.0569,-352.3333 351.0569,-352.3333 351.0569,-355.1667 348.2236,-358 345.3902,-358"/>
<text text-anchor="middle" x="324.0569" y="-346.8" font-family="Helvetica,sans-Serif" font-size="9.00" fill="#000000">Cursor.ts</text>
</a>
</g>
</g>
<!-- src/public/js/ClientFabrik.ts&#45;&gt;src/public/js/Cursor.ts -->
<g id="edge10" class="edge">
<title>src/public/js/ClientFabrik.ts&#45;&gt;src/public/js/Cursor.ts</title>
<path fill="none" stroke="#000000" d="M240.1024,-329.0441C254.8108,-332.6279 271.9305,-336.7992 286.8595,-340.4367"/>
<polygon fill="#000000" stroke="#000000" points="286.244,-343.8891 296.7884,-342.8559 287.9012,-337.088 286.244,-343.8891"/>
</g>
<!-- src/public/js/ViewBuilder.ts -->
<g id="node42" class="node">
<title>src/public/js/ViewBuilder.ts</title>
<g id="a_node42"><a xlink:href="src/public/js/ViewBuilder.ts" xlink:title="ViewBuilder.ts">
<path fill="#ffffcc" stroke="#000000" d="M354.7642,-387C354.7642,-387 293.3495,-387 293.3495,-387 290.5162,-387 287.6829,-384.1667 287.6829,-381.3333 287.6829,-381.3333 287.6829,-375.6667 287.6829,-375.6667 287.6829,-372.8333 290.5162,-370 293.3495,-370 293.3495,-370 354.7642,-370 354.7642,-370 357.5976,-370 360.4309,-372.8333 360.4309,-375.6667 360.4309,-375.6667 360.4309,-381.3333 360.4309,-381.3333 360.4309,-384.1667 357.5976,-387 354.7642,-387"/>
<text text-anchor="middle" x="324.0569" y="-375.8" font-family="Helvetica,sans-Serif" font-size="9.00" fill="#000000">ViewBuilder.ts</text>
</a>
</g>
</g>
<!-- src/public/js/ClientFabrik.ts&#45;&gt;src/public/js/ViewBuilder.ts -->
<g id="edge11" class="edge">
<title>src/public/js/ClientFabrik.ts&#45;&gt;src/public/js/ViewBuilder.ts</title>
<path fill="none" stroke="#000000" d="M215.5457,-329.1624C228.0086,-339.0329 249.7524,-355.0195 270.7913,-364.5 273.1177,-365.5483 275.538,-366.5303 278.0072,-367.4482"/>
<polygon fill="#000000" stroke="#000000" points="277.0853,-370.8303 287.679,-370.6768 279.3018,-364.1904 277.0853,-370.8303"/>
</g>
<!-- src/public/js/Cursor.ts&#45;&gt;events -->
<g id="edge12" class="edge">
<title>src/public/js/Cursor.ts&#45;&gt;events</title>
<path fill="none" stroke="#c0c0c0" d="M351.3984,-346.3347C358.1594,-344.2644 364.7637,-340.9095 369.3225,-335.5 449.0417,-240.9064 338.1517,-163.3807 405.3225,-59.5 407.1402,-56.6888 409.4568,-54.1776 412.0342,-51.9493"/>
<polygon fill="#c0c0c0" stroke="#c0c0c0" points="414.1672,-54.7277 420.311,-46.0961 410.1255,-49.0124 414.1672,-54.7277"/>
</g>
<!-- src/public/js/CursorView.ts -->
<g id="node32" class="node">
<title>src/public/js/CursorView.ts</title>
<g id="a_node32"><a xlink:href="src/public/js/CursorView.ts" xlink:title="CursorView.ts">
<path fill="#ffffcc" stroke="#000000" d="M471.2002,-372C471.2002,-372 410.8071,-372 410.8071,-372 407.9738,-372 405.1404,-369.1667 405.1404,-366.3333 405.1404,-366.3333 405.1404,-360.6667 405.1404,-360.6667 405.1404,-357.8333 407.9738,-355 410.8071,-355 410.8071,-355 471.2002,-355 471.2002,-355 474.0336,-355 476.8669,-357.8333 476.8669,-360.6667 476.8669,-360.6667 476.8669,-366.3333 476.8669,-366.3333 476.8669,-369.1667 474.0336,-372 471.2002,-372"/>
<text text-anchor="middle" x="441.0037" y="-360.8" font-family="Helvetica,sans-Serif" font-size="9.00" fill="#000000">CursorView.ts</text>
</a>
</g>
</g>
<!-- src/public/js/FightingBoard.ts -->
<g id="node33" class="node">
<title>src/public/js/FightingBoard.ts</title>
<g id="a_node33"><a xlink:href="src/public/js/FightingBoard.ts" xlink:title="FightingBoard.ts">
<path fill="#ffffcc" stroke="#000000" d="M119.6349,-503C119.6349,-503 49.8944,-503 49.8944,-503 47.061,-503 44.2277,-500.1667 44.2277,-497.3333 44.2277,-497.3333 44.2277,-491.6667 44.2277,-491.6667 44.2277,-488.8333 47.061,-486 49.8944,-486 49.8944,-486 119.6349,-486 119.6349,-486 122.4683,-486 125.3016,-488.8333 125.3016,-491.6667 125.3016,-491.6667 125.3016,-497.3333 125.3016,-497.3333 125.3016,-500.1667 122.4683,-503 119.6349,-503"/>
<text text-anchor="middle" x="84.7646" y="-491.8" font-family="Helvetica,sans-Serif" font-size="9.00" fill="#000000">FightingBoard.ts</text>
</a>
</g>
</g>
<!-- src/public/js/Figure.ts -->
<g id="node34" class="node">
<title>src/public/js/Figure.ts</title>
<g id="a_node34"><a xlink:href="src/public/js/Figure.ts" xlink:title="Figure.ts">
<path fill="#ffffcc" stroke="#000000" d="M106.098,-474C106.098,-474 63.4313,-474 63.4313,-474 60.598,-474 57.7646,-471.1667 57.7646,-468.3333 57.7646,-468.3333 57.7646,-462.6667 57.7646,-462.6667 57.7646,-459.8333 60.598,-457 63.4313,-457 63.4313,-457 106.098,-457 106.098,-457 108.9313,-457 111.7646,-459.8333 111.7646,-462.6667 111.7646,-462.6667 111.7646,-468.3333 111.7646,-468.3333 111.7646,-471.1667 108.9313,-474 106.098,-474"/>
<text text-anchor="middle" x="84.7646" y="-462.8" font-family="Helvetica,sans-Serif" font-size="9.00" fill="#000000">Figure.ts</text>
</a>
</g>
</g>
<!-- src/public/js/IClientAdapter.ts -->
<g id="node35" class="node">
<title>src/public/js/IClientAdapter.ts</title>
<g id="a_node35"><a xlink:href="src/public/js/IClientAdapter.ts" xlink:title="IClientAdapter.ts">
<path fill="#ffffcc" stroke="#000000" d="M120.139,-445C120.139,-445 49.3903,-445 49.3903,-445 46.557,-445 43.7236,-442.1667 43.7236,-439.3333 43.7236,-439.3333 43.7236,-433.6667 43.7236,-433.6667 43.7236,-430.8333 46.557,-428 49.3903,-428 49.3903,-428 120.139,-428 120.139,-428 122.9723,-428 125.8057,-430.8333 125.8057,-433.6667 125.8057,-433.6667 125.8057,-439.3333 125.8057,-439.3333 125.8057,-442.1667 122.9723,-445 120.139,-445"/>
<text text-anchor="middle" x="84.7646" y="-433.8" font-family="Helvetica,sans-Serif" font-size="9.00" fill="#000000">IClientAdapter.ts</text>
</a>
</g>
</g>
<!-- src/public/js/IClientController.ts -->
<g id="node36" class="node">
<title>src/public/js/IClientController.ts</title>
<g id="a_node36"><a xlink:href="src/public/js/IClientController.ts" xlink:title="IClientController.ts">
<path fill="#ffffcc" stroke="#000000" d="M123.6329,-416C123.6329,-416 45.8964,-416 45.8964,-416 43.0631,-416 40.2297,-413.1667 40.2297,-410.3333 40.2297,-410.3333 40.2297,-404.6667 40.2297,-404.6667 40.2297,-401.8333 43.0631,-399 45.8964,-399 45.8964,-399 123.6329,-399 123.6329,-399 126.4662,-399 129.2995,-401.8333 129.2995,-404.6667 129.2995,-404.6667 129.2995,-410.3333 129.2995,-410.3333 129.2995,-413.1667 126.4662,-416 123.6329,-416"/>
<text text-anchor="middle" x="84.7646" y="-404.8" font-family="Helvetica,sans-Serif" font-size="9.00" fill="#000000">IClientController.ts</text>
</a>
</g>
</g>
<!-- src/public/js/IView.ts -->
<g id="node37" class="node">
<title>src/public/js/IView.ts</title>
<g id="a_node37"><a xlink:href="src/public/js/IView.ts" xlink:title="IView.ts">
<path fill="#ffffcc" stroke="#000000" d="M106.098,-387C106.098,-387 63.4313,-387 63.4313,-387 60.598,-387 57.7646,-384.1667 57.7646,-381.3333 57.7646,-381.3333 57.7646,-375.6667 57.7646,-375.6667 57.7646,-372.8333 60.598,-370 63.4313,-370 63.4313,-370 106.098,-370 106.098,-370 108.9313,-370 111.7646,-372.8333 111.7646,-375.6667 111.7646,-375.6667 111.7646,-381.3333 111.7646,-381.3333 111.7646,-384.1667 108.9313,-387 106.098,-387"/>
<text text-anchor="middle" x="84.7646" y="-375.8" font-family="Helvetica,sans-Serif" font-size="9.00" fill="#000000">IView.ts</text>
</a>
</g>
</g>
<!-- src/public/js/IViewBuilder.ts -->
<g id="node38" class="node">
<title>src/public/js/IViewBuilder.ts</title>
<g id="a_node38"><a xlink:href="src/public/js/IViewBuilder.ts" xlink:title="IViewBuilder.ts">
<path fill="#ffffcc" stroke="#000000" d="M116.4716,-358C116.4716,-358 53.0577,-358 53.0577,-358 50.2243,-358 47.391,-355.1667 47.391,-352.3333 47.391,-352.3333 47.391,-346.6667 47.391,-346.6667 47.391,-343.8333 50.2243,-341 53.0577,-341 53.0577,-341 116.4716,-341 116.4716,-341 119.305,-341 122.1383,-343.8333 122.1383,-346.6667 122.1383,-346.6667 122.1383,-352.3333 122.1383,-352.3333 122.1383,-355.1667 119.305,-358 116.4716,-358"/>
<text text-anchor="middle" x="84.7646" y="-346.8" font-family="Helvetica,sans-Serif" font-size="9.00" fill="#000000">IViewBuilder.ts</text>
</a>
</g>
</g>
<!-- src/public/js/Renderer.ts -->
<g id="node39" class="node">
<title>src/public/js/Renderer.ts</title>
<g id="a_node39"><a xlink:href="src/public/js/Renderer.ts" xlink:title="Renderer.ts">
<path fill="#ffffcc" stroke="#000000" d="M110.129,-329C110.129,-329 59.4003,-329 59.4003,-329 56.5669,-329 53.7336,-326.1667 53.7336,-323.3333 53.7336,-323.3333 53.7336,-317.6667 53.7336,-317.6667 53.7336,-314.8333 56.5669,-312 59.4003,-312 59.4003,-312 110.129,-312 110.129,-312 112.9624,-312 115.7957,-314.8333 115.7957,-317.6667 115.7957,-317.6667 115.7957,-323.3333 115.7957,-323.3333 115.7957,-326.1667 112.9624,-329 110.129,-329"/>
<text text-anchor="middle" x="84.7646" y="-317.8" font-family="Helvetica,sans-Serif" font-size="9.00" fill="#000000">Renderer.ts</text>
</a>
</g>
</g>
<!-- src/public/js/Scene.ts -->
<g id="node40" class="node">
<title>src/public/js/Scene.ts</title>
<g id="a_node40"><a xlink:href="src/public/js/Scene.ts" xlink:title="Scene.ts">
<path fill="#ffffcc" stroke="#000000" d="M106.098,-300C106.098,-300 63.4313,-300 63.4313,-300 60.598,-300 57.7646,-297.1667 57.7646,-294.3333 57.7646,-294.3333 57.7646,-288.6667 57.7646,-288.6667 57.7646,-285.8333 60.598,-283 63.4313,-283 63.4313,-283 106.098,-283 106.098,-283 108.9313,-283 111.7646,-285.8333 111.7646,-288.6667 111.7646,-288.6667 111.7646,-294.3333 111.7646,-294.3333 111.7646,-297.1667 108.9313,-300 106.098,-300"/>
<text text-anchor="middle" x="84.7646" y="-288.8" font-family="Helvetica,sans-Serif" font-size="9.00" fill="#000000">Scene.ts</text>
</a>
</g>
</g>
<!-- src/public/js/ViewBuilder.ts&#45;&gt;src/public/js/BoardView.ts -->
<g id="edge13" class="edge">
<title>src/public/js/ViewBuilder.ts&#45;&gt;src/public/js/BoardView.ts</title>
<path fill="none" stroke="#000000" d="M360.4185,-382.8529C371.8276,-384.2188 384.5538,-385.7422 396.4616,-387.1678"/>
<polygon fill="#000000" stroke="#000000" points="396.3165,-390.6753 406.6616,-388.3888 397.1486,-383.7249 396.3165,-390.6753"/>
</g>
<!-- src/public/js/ViewBuilder.ts&#45;&gt;src/public/js/CursorView.ts -->
<g id="edge14" class="edge">
<title>src/public/js/ViewBuilder.ts&#45;&gt;src/public/js/CursorView.ts</title>
<path fill="none" stroke="#000000" d="M360.4185,-373.8361C371.3017,-372.4402 383.3833,-370.8906 394.8098,-369.425"/>
<polygon fill="#000000" stroke="#000000" points="395.5928,-372.8533 405.0662,-368.1095 394.7022,-365.9102 395.5928,-372.8533"/>
</g>
<!-- src/public/js/lib/OrbitControls.js -->
<g id="node43" class="node">
<title>src/public/js/lib/OrbitControls.js</title>
<g id="a_node43"><a xlink:href="src/public/js/lib/OrbitControls.js" xlink:title="OrbitControls.js">
<path fill="#ffffcc" stroke="#000000" d="M118.1136,-624C118.1136,-624 51.4157,-624 51.4157,-624 48.5824,-624 45.749,-621.1667 45.749,-618.3333 45.749,-618.3333 45.749,-612.6667 45.749,-612.6667 45.749,-609.8333 48.5824,-607 51.4157,-607 51.4157,-607 118.1136,-607 118.1136,-607 120.9469,-607 123.7803,-609.8333 123.7803,-612.6667 123.7803,-612.6667 123.7803,-618.3333 123.7803,-618.3333 123.7803,-621.1667 120.9469,-624 118.1136,-624"/>
<text text-anchor="middle" x="84.7646" y="-612.8" font-family="Helvetica,sans-Serif" font-size="9.00" fill="#000000">OrbitControls.js</text>
</a>
</g>
</g>
<!-- src/public/js/lib/jquery&#45;3.1.1.min.js -->
<g id="node44" class="node">
<title>src/public/js/lib/jquery&#45;3.1.1.min.js</title>
<g id="a_node44"><a xlink:href="src/public/js/lib/jquery-3.1.1.min.js" xlink:title="jquery&#45;3.1.1.min.js">
<path fill="#ffffcc" stroke="#000000" d="M123.6285,-595C123.6285,-595 45.9008,-595 45.9008,-595 43.0675,-595 40.2341,-592.1667 40.2341,-589.3333 40.2341,-589.3333 40.2341,-583.6667 40.2341,-583.6667 40.2341,-580.8333 43.0675,-578 45.9008,-578 45.9008,-578 123.6285,-578 123.6285,-578 126.4618,-578 129.2952,-580.8333 129.2952,-583.6667 129.2952,-583.6667 129.2952,-589.3333 129.2952,-589.3333 129.2952,-592.1667 126.4618,-595 123.6285,-595"/>
<text text-anchor="middle" x="84.7646" y="-583.8" font-family="Helvetica,sans-Serif" font-size="9.00" fill="#000000">jquery&#45;3.1.1.min.js</text>
</a>
</g>
</g>
<!-- src/public/js/lib/three.min.js -->
<g id="node45" class="node">
<title>src/public/js/lib/three.min.js</title>
<g id="a_node45"><a xlink:href="src/public/js/lib/three.min.js" xlink:title="three.min.js">
<path fill="#ffffcc" stroke="#000000" d="M110.116,-566C110.116,-566 59.4133,-566 59.4133,-566 56.58,-566 53.7467,-563.1667 53.7467,-560.3333 53.7467,-560.3333 53.7467,-554.6667 53.7467,-554.6667 53.7467,-551.8333 56.58,-549 59.4133,-549 59.4133,-549 110.116,-549 110.116,-549 112.9493,-549 115.7826,-551.8333 115.7826,-554.6667 115.7826,-554.6667 115.7826,-560.3333 115.7826,-560.3333 115.7826,-563.1667 112.9493,-566 110.116,-566"/>
<text text-anchor="middle" x="84.7646" y="-554.8" font-family="Helvetica,sans-Serif" font-size="9.00" fill="#000000">three.min.js</text>
</a>
</g>
</g>
<!-- src/public/js/main.ts -->
<g id="node46" class="node">
<title>src/public/js/main.ts</title>
<g id="a_node46"><a xlink:href="src/public/js/main.ts" xlink:title="main.ts">
<path fill="#ffffcc" stroke="#000000" d="M106.098,-271C106.098,-271 63.4313,-271 63.4313,-271 60.598,-271 57.7646,-268.1667 57.7646,-265.3333 57.7646,-265.3333 57.7646,-259.6667 57.7646,-259.6667 57.7646,-256.8333 60.598,-254 63.4313,-254 63.4313,-254 106.098,-254 106.098,-254 108.9313,-254 111.7646,-256.8333 111.7646,-259.6667 111.7646,-259.6667 111.7646,-265.3333 111.7646,-265.3333 111.7646,-268.1667 108.9313,-271 106.098,-271"/>
<text text-anchor="middle" x="84.7646" y="-259.8" font-family="Helvetica,sans-Serif" font-size="9.00" fill="#000000">main.ts</text>
</a>
</g>
</g>
<!-- src/public/js/main.ts&#45;&gt;src/public/js/Client.ts -->
<g id="edge15" class="edge">
<title>src/public/js/main.ts&#45;&gt;src/public/js/Client.ts</title>
<path fill="none" stroke="#000000" d="M112.0561,-262.5C128.5099,-262.5 149.6959,-262.5 167.688,-262.5"/>
<polygon fill="#000000" stroke="#000000" points="167.8525,-266.0001 177.8525,-262.5 167.8525,-259.0001 167.8525,-266.0001"/>
</g>
<!-- src/public/js/main.ts&#45;&gt;src/public/js/ClientFabrik.ts -->
<g id="edge16" class="edge">
<title>src/public/js/main.ts&#45;&gt;src/public/js/ClientFabrik.ts</title>
<path fill="none" stroke="#000000" d="M111.9651,-268.2124C120.8769,-270.5463 130.6906,-273.6246 139.2805,-277.5 155.8887,-284.993 173.0677,-296.3738 185.7001,-305.5452"/>
<polygon fill="#000000" stroke="#000000" points="183.9117,-308.5773 194.0217,-311.7456 188.0941,-302.9641 183.9117,-308.5773"/>
</g>
<!-- src/server.ts -->
<g id="node47" class="node">
<title>src/server.ts</title>
<g id="a_node47"><a xlink:href="src/server.ts" xlink:title="server.ts">
<path fill="#ffffcc" stroke="#000000" d="M106.098,-111C106.098,-111 63.4313,-111 63.4313,-111 60.598,-111 57.7646,-108.1667 57.7646,-105.3333 57.7646,-105.3333 57.7646,-99.6667 57.7646,-99.6667 57.7646,-96.8333 60.598,-94 63.4313,-94 63.4313,-94 106.098,-94 106.098,-94 108.9313,-94 111.7646,-96.8333 111.7646,-99.6667 111.7646,-99.6667 111.7646,-105.3333 111.7646,-105.3333 111.7646,-108.1667 108.9313,-111 106.098,-111"/>
<text text-anchor="middle" x="84.7646" y="-99.8" font-family="Helvetica,sans-Serif" font-size="9.00" fill="#000000">server.ts</text>
</a>
</g>
</g>
<!-- src/server.ts&#45;&gt;path -->
<g id="edge19" class="edge">
<title>src/server.ts&#45;&gt;path</title>
<path fill="none" stroke="#c0c0c0" d="M96.9061,-93.9255C112.6215,-83.082 141.1013,-64.2865 167.2805,-51.5 168.2542,-51.0244 169.2483,-50.5552 170.2569,-50.0931"/>
<polygon fill="#c0c0c0" stroke="#c0c0c0" points="171.7151,-53.2766 179.5613,-46.157 168.9878,-46.8298 171.7151,-53.2766"/>
</g>
<!-- src/server.ts&#45;&gt;src/implementations/ModelBuilder.ts -->
<g id="edge17" class="edge">
<title>src/server.ts&#45;&gt;src/implementations/ModelBuilder.ts</title>
<path fill="none" stroke="#000000" d="M111.9617,-109.3942C120.6937,-111.6318 130.4022,-114.145 139.2805,-116.5 197.8545,-132.0371 212.2614,-136.7976 270.7913,-152.5 274.3237,-153.4477 277.9896,-154.4247 281.6703,-155.4011"/>
<polygon fill="#000000" stroke="#000000" points="280.804,-158.7923 291.3664,-157.964 282.5928,-152.0247 280.804,-158.7923"/>
</g>
<!-- src/serverFabrik.ts -->
<g id="node48" class="node">
<title>src/serverFabrik.ts</title>
<g id="a_node48"><a xlink:href="src/serverFabrik.ts" xlink:title="serverFabrik.ts">
<path fill="#ffffcc" stroke="#000000" d="M236.8815,-114C236.8815,-114 173.1902,-114 173.1902,-114 170.3569,-114 167.5236,-111.1667 167.5236,-108.3333 167.5236,-108.3333 167.5236,-102.6667 167.5236,-102.6667 167.5236,-99.8333 170.3569,-97 173.1902,-97 173.1902,-97 236.8815,-97 236.8815,-97 239.7149,-97 242.5482,-99.8333 242.5482,-102.6667 242.5482,-102.6667 242.5482,-108.3333 242.5482,-108.3333 242.5482,-111.1667 239.7149,-114 236.8815,-114"/>
<text text-anchor="middle" x="205.0359" y="-102.8" font-family="Helvetica,sans-Serif" font-size="9.00" fill="#000000">serverFabrik.ts</text>
</a>
</g>
</g>
<!-- src/server.ts&#45;&gt;src/serverFabrik.ts -->
<g id="edge18" class="edge">
<title>src/server.ts&#45;&gt;src/serverFabrik.ts</title>
<path fill="none" stroke="#000000" d="M112.0561,-103.1807C125.3456,-103.5122 141.7223,-103.9207 157.0097,-104.3021"/>
<polygon fill="#000000" stroke="#000000" points="157.2838,-107.8099 167.368,-104.5604 157.4584,-100.8121 157.2838,-107.8099"/>
</g>
<!-- src/serverFabrik.ts&#45;&gt;src/implementations/GameModel.ts -->
<g id="edge20" class="edge">
<title>src/serverFabrik.ts&#45;&gt;src/implementations/GameModel.ts</title>
<path fill="none" stroke="#000000" d="M242.6949,-97.2734C253.5458,-94.9031 265.5223,-92.2868 276.8731,-89.8072"/>
<polygon fill="#000000" stroke="#000000" points="277.6202,-93.2267 286.6429,-87.673 276.1263,-86.3879 277.6202,-93.2267"/>
</g>
<!-- src/serverFabrik.ts&#45;&gt;src/implementations/ServerAdapter.ts -->
<g id="edge21" class="edge">
<title>src/serverFabrik.ts&#45;&gt;src/implementations/ServerAdapter.ts</title>
<path fill="none" stroke="#000000" d="M242.6949,-106.4492C252.0965,-106.6862 262.343,-106.9445 272.2954,-107.1953"/>
<polygon fill="#000000" stroke="#000000" points="272.4276,-110.6997 282.5127,-107.4529 272.6041,-103.7019 272.4276,-110.6997"/>
</g>
<!-- src/serverFabrik.ts&#45;&gt;src/implementations/ServerController.ts -->
<g id="edge22" class="edge">
<title>src/serverFabrik.ts&#45;&gt;src/implementations/ServerController.ts</title>
<path fill="none" stroke="#000000" d="M236.1259,-114.0804C247.0761,-117.084 259.474,-120.4638 270.7913,-123.5 274.3237,-124.4477 277.9896,-125.4247 281.6703,-126.4011"/>
<polygon fill="#000000" stroke="#000000" points="280.804,-129.7923 291.3664,-128.964 282.5928,-123.0247 280.804,-129.7923"/>
</g>
<!-- src/types/express&#45;flash.d.ts -->
<g id="node49" class="node">
<title>src/types/express&#45;flash.d.ts</title>
<g id="a_node49"><a xlink:href="src/types/express-flash.d.ts" xlink:title="express&#45;flash.d.ts">
<path fill="#ffffcc" stroke="#000000" d="M122.1271,-145C122.1271,-145 47.4022,-145 47.4022,-145 44.5689,-145 41.7355,-142.1667 41.7355,-139.3333 41.7355,-139.3333 41.7355,-133.6667 41.7355,-133.6667 41.7355,-130.8333 44.5689,-128 47.4022,-128 47.4022,-128 122.1271,-128 122.1271,-128 124.9604,-128 127.7938,-130.8333 127.7938,-133.6667 127.7938,-133.6667 127.7938,-139.3333 127.7938,-139.3333 127.7938,-142.1667 124.9604,-145 122.1271,-145"/>
<text text-anchor="middle" x="84.7646" y="-133.8" font-family="Helvetica,sans-Serif" font-size="9.00" fill="#000000">express&#45;flash.d.ts</text>
</a>
</g>
</g>
<!-- src/types/threejs/three.d.ts -->
<g id="node50" class="node">
<title>src/types/threejs/three.d.ts</title>
<g id="a_node50"><a xlink:href="src/types/threejs/three.d.ts" xlink:title="three.d.ts">
<path fill="#ffffcc" stroke="#000000" d="M106.098,-179C106.098,-179 63.4313,-179 63.4313,-179 60.598,-179 57.7646,-176.1667 57.7646,-173.3333 57.7646,-173.3333 57.7646,-167.6667 57.7646,-167.6667 57.7646,-164.8333 60.598,-162 63.4313,-162 63.4313,-162 106.098,-162 106.098,-162 108.9313,-162 111.7646,-164.8333 111.7646,-167.6667 111.7646,-167.6667 111.7646,-173.3333 111.7646,-173.3333 111.7646,-176.1667 108.9313,-179 106.098,-179"/>
<text text-anchor="middle" x="84.7646" y="-167.8" font-family="Helvetica,sans-Serif" font-size="9.00" fill="#000000">three.d.ts</text>
</a>
</g>
</g>
</g>
</svg>
