<?xml version="1.0" encoding="UTF-8" standalone="no"?>
<!DOCTYPE svg PUBLIC "-//W3C//DTD SVG 1.1//EN"
 "http://www.w3.org/Graphics/SVG/1.1/DTD/svg11.dtd">
<!-- Generated by graphviz version 2.40.1 (20161225.0304)
 -->
<!-- Title: dependency&#45;cruiser output Pages: 1 -->
<svg width="638pt" height="916pt"
 viewBox="0.00 0.00 638.22 915.50" xmlns="http://www.w3.org/2000/svg" xmlns:xlink="http://www.w3.org/1999/xlink">
<g id="graph0" class="graph" transform="scale(1 1) rotate(0) translate(4 911.5)">
<title>dependency&#45;cruiser output</title>
<polygon fill="#ffffff" stroke="transparent" points="-4,4 -4,-911.5 634.2219,-911.5 634.2219,4 -4,4"/>
<g id="clust1" class="cluster">
<title>cluster_/src</title>
<path fill="none" stroke="#000000" stroke-width="2" d="M20,-54.5C20,-54.5 610.2219,-54.5 610.2219,-54.5 616.2219,-54.5 622.2219,-60.5 622.2219,-66.5 622.2219,-66.5 622.2219,-887.5 622.2219,-887.5 622.2219,-893.5 616.2219,-899.5 610.2219,-899.5 610.2219,-899.5 20,-899.5 20,-899.5 14,-899.5 8,-893.5 8,-887.5 8,-887.5 8,-66.5 8,-66.5 8,-60.5 14,-54.5 20,-54.5"/>
<text text-anchor="middle" x="315.111" y="-888.3" font-family="Helvetica,sans-Serif" font-weight="bold" font-size="9.00" fill="#000000">src</text>
</g>
<g id="clust2" class="cluster">
<title>cluster_/src/implementations</title>
<path fill="none" stroke="#000000" stroke-width="2" d="M282.7913,-62.5C282.7913,-62.5 464.0037,-62.5 464.0037,-62.5 470.0037,-62.5 476.0037,-68.5 476.0037,-74.5 476.0037,-74.5 476.0037,-275.5 476.0037,-275.5 476.0037,-281.5 470.0037,-287.5 464.0037,-287.5 464.0037,-287.5 282.7913,-287.5 282.7913,-287.5 276.7913,-287.5 270.7913,-281.5 270.7913,-275.5 270.7913,-275.5 270.7913,-74.5 270.7913,-74.5 270.7913,-68.5 276.7913,-62.5 282.7913,-62.5"/>
<text text-anchor="middle" x="373.3975" y="-276.3" font-family="Helvetica,sans-Serif" font-weight="bold" font-size="9.00" fill="#000000">implementations</text>
</g>
<g id="clust3" class="cluster">
<title>cluster_/src/informationmodel</title>
<path fill="none" stroke="#000000" stroke-width="2" d="M516.6848,-62.5C516.6848,-62.5 602.2219,-62.5 602.2219,-62.5 608.2219,-62.5 614.2219,-68.5 614.2219,-74.5 614.2219,-74.5 614.2219,-391.5 614.2219,-391.5 614.2219,-397.5 608.2219,-403.5 602.2219,-403.5 602.2219,-403.5 516.6848,-403.5 516.6848,-403.5 510.6848,-403.5 504.6848,-397.5 504.6848,-391.5 504.6848,-391.5 504.6848,-74.5 504.6848,-74.5 504.6848,-68.5 510.6848,-62.5 516.6848,-62.5"/>
<text text-anchor="middle" x="559.4534" y="-392.3" font-family="Helvetica,sans-Serif" font-weight="bold" font-size="9.00" fill="#000000">informationmodel</text>
</g>
<g id="clust4" class="cluster">
<title>cluster_/src/interfaces</title>
<path fill="none" stroke="#000000" stroke-width="2" d="M42.2488,-765.5C42.2488,-765.5 127.2805,-765.5 127.2805,-765.5 133.2805,-765.5 139.2805,-771.5 139.2805,-777.5 139.2805,-777.5 139.2805,-862.5 139.2805,-862.5 139.2805,-868.5 133.2805,-874.5 127.2805,-874.5 127.2805,-874.5 42.2488,-874.5 42.2488,-874.5 36.2488,-874.5 30.2488,-868.5 30.2488,-862.5 30.2488,-862.5 30.2488,-777.5 30.2488,-777.5 30.2488,-771.5 36.2488,-765.5 42.2488,-765.5"/>
<text text-anchor="middle" x="84.7646" y="-863.3" font-family="Helvetica,sans-Serif" font-weight="bold" font-size="9.00" fill="#000000">interfaces</text>
</g>
<g id="clust5" class="cluster">
<title>cluster_/src/public</title>
<path fill="none" stroke="#000000" stroke-width="2" d="M28,-295.5C28,-295.5 480.6848,-295.5 480.6848,-295.5 486.6848,-295.5 492.6848,-301.5 492.6848,-307.5 492.6848,-307.5 492.6848,-745.5 492.6848,-745.5 492.6848,-751.5 486.6848,-757.5 480.6848,-757.5 480.6848,-757.5 28,-757.5 28,-757.5 22,-757.5 16,-751.5 16,-745.5 16,-745.5 16,-307.5 16,-307.5 16,-301.5 22,-295.5 28,-295.5"/>
<text text-anchor="middle" x="254.3424" y="-746.3" font-family="Helvetica,sans-Serif" font-weight="bold" font-size="9.00" fill="#000000">public</text>
</g>
<g id="clust6" class="cluster">
<title>cluster_/src/public/js</title>
<path fill="none" stroke="#000000" stroke-width="2" d="M36,-303.5C36,-303.5 472.6848,-303.5 472.6848,-303.5 478.6848,-303.5 484.6848,-309.5 484.6848,-315.5 484.6848,-315.5 484.6848,-720.5 484.6848,-720.5 484.6848,-726.5 478.6848,-732.5 472.6848,-732.5 472.6848,-732.5 36,-732.5 36,-732.5 30,-732.5 24,-726.5 24,-720.5 24,-720.5 24,-315.5 24,-315.5 24,-309.5 30,-303.5 36,-303.5"/>
<text text-anchor="middle" x="254.3424" y="-721.3" font-family="Helvetica,sans-Serif" font-weight="bold" font-size="9.00" fill="#000000">js</text>
</g>
<g id="clust7" class="cluster">
<title>cluster_/src/public/js/lib</title>
<path fill="none" stroke="#000000" stroke-width="2" d="M44,-598.5C44,-598.5 125.5293,-598.5 125.5293,-598.5 131.5293,-598.5 137.5293,-604.5 137.5293,-610.5 137.5293,-610.5 137.5293,-695.5 137.5293,-695.5 137.5293,-701.5 131.5293,-707.5 125.5293,-707.5 125.5293,-707.5 44,-707.5 44,-707.5 38,-707.5 32,-701.5 32,-695.5 32,-695.5 32,-610.5 32,-610.5 32,-604.5 38,-598.5 44,-598.5"/>
<text text-anchor="middle" x="84.7646" y="-696.3" font-family="Helvetica,sans-Serif" font-weight="bold" font-size="9.00" fill="#000000">lib</text>
</g>
<g id="clust8" class="cluster">
<title>cluster_/src/types</title>
<path fill="none" stroke="#000000" stroke-width="2" d="M45.5007,-195.5C45.5007,-195.5 124.0286,-195.5 124.0286,-195.5 130.0286,-195.5 136.0286,-201.5 136.0286,-207.5 136.0286,-207.5 136.0286,-234.5 136.0286,-234.5 136.0286,-240.5 130.0286,-246.5 124.0286,-246.5 124.0286,-246.5 45.5007,-246.5 45.5007,-246.5 39.5007,-246.5 33.5007,-240.5 33.5007,-234.5 33.5007,-234.5 33.5007,-207.5 33.5007,-207.5 33.5007,-201.5 39.5007,-195.5 45.5007,-195.5"/>
<text text-anchor="middle" x="84.7646" y="-235.3" font-family="Helvetica,sans-Serif" font-weight="bold" font-size="9.00" fill="#000000">types</text>
</g>
<!-- events -->
<g id="node1" class="node">
<title>events</title>
<path fill="#ffffcc" stroke="#c0c0c0" d="M462.337,-46C462.337,-46 419.6703,-46 419.6703,-46 416.837,-46 414.0037,-43.1667 414.0037,-40.3333 414.0037,-40.3333 414.0037,-34.6667 414.0037,-34.6667 414.0037,-31.8333 416.837,-29 419.6703,-29 419.6703,-29 462.337,-29 462.337,-29 465.1703,-29 468.0037,-31.8333 468.0037,-34.6667 468.0037,-34.6667 468.0037,-40.3333 468.0037,-40.3333 468.0037,-43.1667 465.1703,-46 462.337,-46"/>
<text text-anchor="middle" x="441.0037" y="-34.8" font-family="Helvetica,sans-Serif" font-size="9.00" fill="#c0c0c0">events</text>
</g>
<!-- fs -->
<g id="node2" class="node">
<title>fs</title>
<path fill="#ffffcc" stroke="#c0c0c0" d="M462.337,-17C462.337,-17 419.6703,-17 419.6703,-17 416.837,-17 414.0037,-14.1667 414.0037,-11.3333 414.0037,-11.3333 414.0037,-5.6667 414.0037,-5.6667 414.0037,-2.8333 416.837,0 419.6703,0 419.6703,0 462.337,0 462.337,0 465.1703,0 468.0037,-2.8333 468.0037,-5.6667 468.0037,-5.6667 468.0037,-11.3333 468.0037,-11.3333 468.0037,-14.1667 465.1703,-17 462.337,-17"/>
<text text-anchor="middle" x="441.0037" y="-5.8" font-family="Helvetica,sans-Serif" font-size="9.00" fill="#c0c0c0">fs</text>
</g>
<!-- path -->
<g id="node3" class="node">
<title>path</title>
<path fill="#ffffcc" stroke="#c0c0c0" d="M226.3692,-46C226.3692,-46 183.7026,-46 183.7026,-46 180.8692,-46 178.0359,-43.1667 178.0359,-40.3333 178.0359,-40.3333 178.0359,-34.6667 178.0359,-34.6667 178.0359,-31.8333 180.8692,-29 183.7026,-29 183.7026,-29 226.3692,-29 226.3692,-29 229.2026,-29 232.0359,-31.8333 232.0359,-34.6667 232.0359,-34.6667 232.0359,-40.3333 232.0359,-40.3333 232.0359,-43.1667 229.2026,-46 226.3692,-46"/>
<text text-anchor="middle" x="205.0359" y="-34.8" font-family="Helvetica,sans-Serif" font-size="9.00" fill="#c0c0c0">path</text>
</g>
<!-- src/implementations/ActionBoard.ts -->
<g id="node4" class="node">
<title>src/implementations/ActionBoard.ts</title>
<g id="a_node4"><a xlink:href="src/implementations/ActionBoard.ts" xlink:title="ActionBoard.ts">
<path fill="#ffffcc" stroke="#000000" d="M355.4224,-262C355.4224,-262 292.6913,-262 292.6913,-262 289.858,-262 287.0247,-259.1667 287.0247,-256.3333 287.0247,-256.3333 287.0247,-250.6667 287.0247,-250.6667 287.0247,-247.8333 289.858,-245 292.6913,-245 292.6913,-245 355.4224,-245 355.4224,-245 358.2558,-245 361.0891,-247.8333 361.0891,-250.6667 361.0891,-250.6667 361.0891,-256.3333 361.0891,-256.3333 361.0891,-259.1667 358.2558,-262 355.4224,-262"/>
<text text-anchor="middle" x="324.0569" y="-250.8" font-family="Helvetica,sans-Serif" font-size="9.00" fill="#000000">ActionBoard.ts</text>
</a>
</g>
</g>
<!-- src/implementations/Board.ts -->
<g id="node5" class="node">
<title>src/implementations/Board.ts</title>
<g id="a_node5"><a xlink:href="src/implementations/Board.ts" xlink:title="Board.ts">
<path fill="#ffffcc" stroke="#000000" d="M462.337,-146C462.337,-146 419.6703,-146 419.6703,-146 416.837,-146 414.0037,-143.1667 414.0037,-140.3333 414.0037,-140.3333 414.0037,-134.6667 414.0037,-134.6667 414.0037,-131.8333 416.837,-129 419.6703,-129 419.6703,-129 462.337,-129 462.337,-129 465.1703,-129 468.0037,-131.8333 468.0037,-134.6667 468.0037,-134.6667 468.0037,-140.3333 468.0037,-140.3333 468.0037,-143.1667 465.1703,-146 462.337,-146"/>
<text text-anchor="middle" x="441.0037" y="-134.8" font-family="Helvetica,sans-Serif" font-size="9.00" fill="#000000">Board.ts</text>
</a>
</g>
</g>
<!-- src/informationmodel/Colors.ts -->
<g id="node13" class="node">
<title>src/informationmodel/Colors.ts</title>
<g id="a_node13"><a xlink:href="src/informationmodel/Colors.ts" xlink:title="Colors.ts">
<path fill="#ffffcc" stroke="#000000" d="M580.7867,-378C580.7867,-378 538.12,-378 538.12,-378 535.2867,-378 532.4534,-375.1667 532.4534,-372.3333 532.4534,-372.3333 532.4534,-366.6667 532.4534,-366.6667 532.4534,-363.8333 535.2867,-361 538.12,-361 538.12,-361 580.7867,-361 580.7867,-361 583.62,-361 586.4534,-363.8333 586.4534,-366.6667 586.4534,-366.6667 586.4534,-372.3333 586.4534,-372.3333 586.4534,-375.1667 583.62,-378 580.7867,-378"/>
<text text-anchor="middle" x="559.4534" y="-366.8" font-family="Helvetica,sans-Serif" font-size="9.00" fill="#000000">Colors.ts</text>
</a>
</g>
</g>
<!-- src/implementations/Board.ts&#45;&gt;src/informationmodel/Colors.ts -->
<g id="edge1" class="edge">
<title>src/implementations/Board.ts&#45;&gt;src/informationmodel/Colors.ts</title>
<path fill="none" stroke="#000000" d="M468.155,-139.1683C477.3275,-141.1583 486.7396,-145.0524 492.6848,-152.5 520.8773,-187.8173 475.9271,-320.6414 504.6848,-355.5 509.1747,-360.9424 515.462,-364.4322 522.1831,-366.6368"/>
<polygon fill="#000000" stroke="#000000" points="521.6424,-370.1061 532.1819,-369.0251 523.2687,-363.2976 521.6424,-370.1061"/>
</g>
<!-- src/implementations/Figure.ts -->
<g id="node6" class="node">
<title>src/implementations/Figure.ts</title>
<g id="a_node6"><a xlink:href="src/implementations/Figure.ts" xlink:title="Figure.ts">
<path fill="#ffffcc" stroke="#000000" d="M345.3902,-233C345.3902,-233 302.7236,-233 302.7236,-233 299.8902,-233 297.0569,-230.1667 297.0569,-227.3333 297.0569,-227.3333 297.0569,-221.6667 297.0569,-221.6667 297.0569,-218.8333 299.8902,-216 302.7236,-216 302.7236,-216 345.3902,-216 345.3902,-216 348.2236,-216 351.0569,-218.8333 351.0569,-221.6667 351.0569,-221.6667 351.0569,-227.3333 351.0569,-227.3333 351.0569,-230.1667 348.2236,-233 345.3902,-233"/>
<text text-anchor="middle" x="324.0569" y="-221.8" font-family="Helvetica,sans-Serif" font-size="9.00" fill="#000000">Figure.ts</text>
</a>
</g>
</g>
<!-- src/implementations/GameModel.ts -->
<g id="node7" class="node">
<title>src/implementations/GameModel.ts</title>
<g id="a_node7"><a xlink:href="src/implementations/GameModel.ts" xlink:title="GameModel.ts">
<path fill="#ffffcc" stroke="#000000" d="M355.4137,-146C355.4137,-146 292.7001,-146 292.7001,-146 289.8667,-146 287.0334,-143.1667 287.0334,-140.3333 287.0334,-140.3333 287.0334,-134.6667 287.0334,-134.6667 287.0334,-131.8333 289.8667,-129 292.7001,-129 292.7001,-129 355.4137,-129 355.4137,-129 358.247,-129 361.0804,-131.8333 361.0804,-134.6667 361.0804,-134.6667 361.0804,-140.3333 361.0804,-140.3333 361.0804,-143.1667 358.247,-146 355.4137,-146"/>
<text text-anchor="middle" x="324.0569" y="-134.8" font-family="Helvetica,sans-Serif" font-size="9.00" fill="#000000">GameModel.ts</text>
</a>
</g>
</g>
<!-- src/implementations/GameModel.ts&#45;&gt;src/implementations/Board.ts -->
<g id="edge2" class="edge">
<title>src/implementations/GameModel.ts&#45;&gt;src/implementations/Board.ts</title>
<path fill="none" stroke="#000000" d="M361.3811,-137.5C374.7786,-137.5 389.8879,-137.5 403.316,-137.5"/>
<polygon fill="#000000" stroke="#000000" points="403.6599,-141.0001 413.6598,-137.5 403.6598,-134.0001 403.6599,-141.0001"/>
</g>
<!-- src/implementations/Player.ts -->
<g id="node9" class="node">
<title>src/implementations/Player.ts</title>
<g id="a_node9"><a xlink:href="src/implementations/Player.ts" xlink:title="Player.ts">
<path fill="#ffffcc" stroke="#000000" d="M462.337,-175C462.337,-175 419.6703,-175 419.6703,-175 416.837,-175 414.0037,-172.1667 414.0037,-169.3333 414.0037,-169.3333 414.0037,-163.6667 414.0037,-163.6667 414.0037,-160.8333 416.837,-158 419.6703,-158 419.6703,-158 462.337,-158 462.337,-158 465.1703,-158 468.0037,-160.8333 468.0037,-163.6667 468.0037,-163.6667 468.0037,-169.3333 468.0037,-169.3333 468.0037,-172.1667 465.1703,-175 462.337,-175"/>
<text text-anchor="middle" x="441.0037" y="-163.8" font-family="Helvetica,sans-Serif" font-size="9.00" fill="#000000">Player.ts</text>
</a>
</g>
</g>
<!-- src/implementations/GameModel.ts&#45;&gt;src/implementations/Player.ts -->
<g id="edge3" class="edge">
<title>src/implementations/GameModel.ts&#45;&gt;src/implementations/Player.ts</title>
<path fill="none" stroke="#000000" d="M358.5123,-146.0441C372.8549,-149.6007 389.5309,-153.736 404.1207,-157.3539"/>
<polygon fill="#000000" stroke="#000000" points="403.2853,-160.7527 413.8338,-159.7625 404.9702,-153.9585 403.2853,-160.7527"/>
</g>
<!-- src/implementations/ModelBuilder.ts -->
<g id="node8" class="node">
<title>src/implementations/ModelBuilder.ts</title>
<g id="a_node8"><a xlink:href="src/implementations/ModelBuilder.ts" xlink:title="ModelBuilder.ts">
<path fill="#ffffcc" stroke="#000000" d="M356.9282,-204C356.9282,-204 291.1856,-204 291.1856,-204 288.3522,-204 285.5189,-201.1667 285.5189,-198.3333 285.5189,-198.3333 285.5189,-192.6667 285.5189,-192.6667 285.5189,-189.8333 288.3522,-187 291.1856,-187 291.1856,-187 356.9282,-187 356.9282,-187 359.7615,-187 362.5949,-189.8333 362.5949,-192.6667 362.5949,-192.6667 362.5949,-198.3333 362.5949,-198.3333 362.5949,-201.1667 359.7615,-204 356.9282,-204"/>
<text text-anchor="middle" x="324.0569" y="-192.8" font-family="Helvetica,sans-Serif" font-size="9.00" fill="#000000">ModelBuilder.ts</text>
</a>
</g>
</g>
<!-- src/implementations/ModelBuilder.ts&#45;&gt;fs -->
<g id="edge5" class="edge">
<title>src/implementations/ModelBuilder.ts&#45;&gt;fs</title>
<path fill="none" stroke="#c0c0c0" d="M362.8533,-186.8059C365.2292,-185.3069 367.4228,-183.5526 369.3225,-181.5 418.5384,-128.3251 358.106,-77.458 405.3225,-22.5 405.4689,-22.3296 405.6176,-22.1614 405.7685,-21.9951"/>
<polygon fill="#c0c0c0" stroke="#c0c0c0" points="408.0126,-24.6843 413.7895,-15.803 403.735,-19.1433 408.0126,-24.6843"/>
</g>
<!-- src/implementations/ModelBuilder.ts&#45;&gt;src/informationmodel/Colors.ts -->
<g id="edge4" class="edge">
<title>src/implementations/ModelBuilder.ts&#45;&gt;src/informationmodel/Colors.ts</title>
<path fill="none" stroke="#000000" d="M354.299,-204.066C359.4261,-205.9267 364.611,-208.0761 369.3225,-210.5 429.6728,-241.5471 455.6244,-243.6441 492.6848,-300.5 506.3471,-321.4599 487.3097,-337.4978 504.6848,-355.5 509.493,-360.4817 515.8103,-363.7809 522.4399,-365.9467"/>
<polygon fill="#000000" stroke="#000000" points="521.6889,-369.3663 532.237,-368.3726 523.3715,-362.5715 521.6889,-369.3663"/>
</g>
<!-- src/implementations/ServerAdapter.ts -->
<g id="node10" class="node">
<title>src/implementations/ServerAdapter.ts</title>
<g id="a_node10"><a xlink:href="src/implementations/ServerAdapter.ts" xlink:title="ServerAdapter.ts">
<path fill="#ffffcc" stroke="#000000" d="M359.9288,-175C359.9288,-175 288.185,-175 288.185,-175 285.3516,-175 282.5183,-172.1667 282.5183,-169.3333 282.5183,-169.3333 282.5183,-163.6667 282.5183,-163.6667 282.5183,-160.8333 285.3516,-158 288.185,-158 288.185,-158 359.9288,-158 359.9288,-158 362.7621,-158 365.5955,-160.8333 365.5955,-163.6667 365.5955,-163.6667 365.5955,-169.3333 365.5955,-169.3333 365.5955,-172.1667 362.7621,-175 359.9288,-175"/>
<text text-anchor="middle" x="324.0569" y="-163.8" font-family="Helvetica,sans-Serif" font-size="9.00" fill="#000000">ServerAdapter.ts</text>
</a>
</g>
</g>
<!-- src/implementations/ServerController.ts -->
<g id="node11" class="node">
<title>src/implementations/ServerController.ts</title>
<g id="a_node11"><a xlink:href="src/implementations/ServerController.ts" xlink:title="ServerController.ts">
<path fill="#ffffcc" stroke="#000000" d="M363.4227,-117C363.4227,-117 284.6911,-117 284.6911,-117 281.8578,-117 279.0244,-114.1667 279.0244,-111.3333 279.0244,-111.3333 279.0244,-105.6667 279.0244,-105.6667 279.0244,-102.8333 281.8578,-100 284.6911,-100 284.6911,-100 363.4227,-100 363.4227,-100 366.256,-100 369.0893,-102.8333 369.0893,-105.6667 369.0893,-105.6667 369.0893,-111.3333 369.0893,-111.3333 369.0893,-114.1667 366.256,-117 363.4227,-117"/>
<text text-anchor="middle" x="324.0569" y="-105.8" font-family="Helvetica,sans-Serif" font-size="9.00" fill="#000000">ServerController.ts</text>
</a>
</g>
</g>
<!-- src/implementations/Spell.ts -->
<g id="node12" class="node">
<title>src/implementations/Spell.ts</title>
<g id="a_node12"><a xlink:href="src/implementations/Spell.ts" xlink:title="Spell.ts">
<path fill="#ffffcc" stroke="#000000" d="M345.3902,-88C345.3902,-88 302.7236,-88 302.7236,-88 299.8902,-88 297.0569,-85.1667 297.0569,-82.3333 297.0569,-82.3333 297.0569,-76.6667 297.0569,-76.6667 297.0569,-73.8333 299.8902,-71 302.7236,-71 302.7236,-71 345.3902,-71 345.3902,-71 348.2236,-71 351.0569,-73.8333 351.0569,-76.6667 351.0569,-76.6667 351.0569,-82.3333 351.0569,-82.3333 351.0569,-85.1667 348.2236,-88 345.3902,-88"/>
<text text-anchor="middle" x="324.0569" y="-76.8" font-family="Helvetica,sans-Serif" font-size="9.00" fill="#000000">Spell.ts</text>
</a>
</g>
</g>
<!-- src/informationmodel/IActionBoardInfo.ts -->
<g id="node14" class="node">
<title>src/informationmodel/IActionBoardInfo.ts</title>
<g id="a_node14"><a xlink:href="src/informationmodel/IActionBoardInfo.ts" xlink:title="IActionBoardInfo.ts">
<path fill="#ffffcc" stroke="#000000" d="M599.8297,-349C599.8297,-349 519.0771,-349 519.0771,-349 516.2437,-349 513.4104,-346.1667 513.4104,-343.3333 513.4104,-343.3333 513.4104,-337.6667 513.4104,-337.6667 513.4104,-334.8333 516.2437,-332 519.0771,-332 519.0771,-332 599.8297,-332 599.8297,-332 602.663,-332 605.4963,-334.8333 605.4963,-337.6667 605.4963,-337.6667 605.4963,-343.3333 605.4963,-343.3333 605.4963,-346.1667 602.663,-349 599.8297,-349"/>
<text text-anchor="middle" x="559.4534" y="-337.8" font-family="Helvetica,sans-Serif" font-size="9.00" fill="#000000">IActionBoardInfo.ts</text>
</a>
</g>
</g>
<!-- src/informationmodel/IActionFigureInfo.ts -->
<g id="node15" class="node">
<title>src/informationmodel/IActionFigureInfo.ts</title>
<g id="a_node15"><a xlink:href="src/informationmodel/IActionFigureInfo.ts" xlink:title="IActionFigureInfo.ts">
<path fill="#ffffcc" stroke="#000000" d="M600.325,-320C600.325,-320 518.5818,-320 518.5818,-320 515.7485,-320 512.9151,-317.1667 512.9151,-314.3333 512.9151,-314.3333 512.9151,-308.6667 512.9151,-308.6667 512.9151,-305.8333 515.7485,-303 518.5818,-303 518.5818,-303 600.325,-303 600.325,-303 603.1583,-303 605.9916,-305.8333 605.9916,-308.6667 605.9916,-308.6667 605.9916,-314.3333 605.9916,-314.3333 605.9916,-317.1667 603.1583,-320 600.325,-320"/>
<text text-anchor="middle" x="559.4534" y="-308.8" font-family="Helvetica,sans-Serif" font-size="9.00" fill="#000000">IActionFigureInfo.ts</text>
</a>
</g>
</g>
<!-- src/informationmodel/IBoardInfo.ts -->
<g id="node16" class="node">
<title>src/informationmodel/IBoardInfo.ts</title>
<g id="a_node16"><a xlink:href="src/informationmodel/IBoardInfo.ts" xlink:title="IBoardInfo.ts">
<path fill="#ffffcc" stroke="#000000" d="M587.316,-291C587.316,-291 531.5907,-291 531.5907,-291 528.7574,-291 525.9241,-288.1667 525.9241,-285.3333 525.9241,-285.3333 525.9241,-279.6667 525.9241,-279.6667 525.9241,-276.8333 528.7574,-274 531.5907,-274 531.5907,-274 587.316,-274 587.316,-274 590.1493,-274 592.9827,-276.8333 592.9827,-279.6667 592.9827,-279.6667 592.9827,-285.3333 592.9827,-285.3333 592.9827,-288.1667 590.1493,-291 587.316,-291"/>
<text text-anchor="middle" x="559.4534" y="-279.8" font-family="Helvetica,sans-Serif" font-size="9.00" fill="#000000">IBoardInfo.ts</text>
</a>
</g>
</g>
<!-- src/informationmodel/ICursorInfo.ts -->
<g id="node17" class="node">
<title>src/informationmodel/ICursorInfo.ts</title>
<g id="a_node17"><a xlink:href="src/informationmodel/ICursorInfo.ts" xlink:title="ICursorInfo.ts">
<path fill="#ffffcc" stroke="#000000" d="M588.8043,-262C588.8043,-262 530.1025,-262 530.1025,-262 527.2691,-262 524.4358,-259.1667 524.4358,-256.3333 524.4358,-256.3333 524.4358,-250.6667 524.4358,-250.6667 524.4358,-247.8333 527.2691,-245 530.1025,-245 530.1025,-245 588.8043,-245 588.8043,-245 591.6376,-245 594.4709,-247.8333 594.4709,-250.6667 594.4709,-250.6667 594.4709,-256.3333 594.4709,-256.3333 594.4709,-259.1667 591.6376,-262 588.8043,-262"/>
<text text-anchor="middle" x="559.4534" y="-250.8" font-family="Helvetica,sans-Serif" font-size="9.00" fill="#000000">ICursorInfo.ts</text>
</a>
</g>
</g>
<!-- src/informationmodel/IFieldInfo.ts -->
<g id="node18" class="node">
<title>src/informationmodel/IFieldInfo.ts</title>
<g id="a_node18"><a xlink:href="src/informationmodel/IFieldInfo.ts" xlink:title="IFieldInfo.ts">
<path fill="#ffffcc" stroke="#000000" d="M584.809,-233C584.809,-233 534.0977,-233 534.0977,-233 531.2644,-233 528.431,-230.1667 528.431,-227.3333 528.431,-227.3333 528.431,-221.6667 528.431,-221.6667 528.431,-218.8333 531.2644,-216 534.0977,-216 534.0977,-216 584.809,-216 584.809,-216 587.6424,-216 590.4757,-218.8333 590.4757,-221.6667 590.4757,-221.6667 590.4757,-227.3333 590.4757,-227.3333 590.4757,-230.1667 587.6424,-233 584.809,-233"/>
<text text-anchor="middle" x="559.4534" y="-221.8" font-family="Helvetica,sans-Serif" font-size="9.00" fill="#000000">IFieldInfo.ts</text>
</a>
</g>
</g>
<!-- src/informationmodel/IFigureInfo.ts -->
<g id="node19" class="node">
<title>src/informationmodel/IFigureInfo.ts</title>
<g id="a_node19"><a xlink:href="src/informationmodel/IFigureInfo.ts" xlink:title="IFigureInfo.ts">
<path fill="#ffffcc" stroke="#000000" d="M587.8118,-204C587.8118,-204 531.095,-204 531.095,-204 528.2616,-204 525.4283,-201.1667 525.4283,-198.3333 525.4283,-198.3333 525.4283,-192.6667 525.4283,-192.6667 525.4283,-189.8333 528.2616,-187 531.095,-187 531.095,-187 587.8118,-187 587.8118,-187 590.6451,-187 593.4785,-189.8333 593.4785,-192.6667 593.4785,-192.6667 593.4785,-198.3333 593.4785,-198.3333 593.4785,-201.1667 590.6451,-204 587.8118,-204"/>
<text text-anchor="middle" x="559.4534" y="-192.8" font-family="Helvetica,sans-Serif" font-size="9.00" fill="#000000">IFigureInfo.ts</text>
</a>
</g>
</g>
<!-- src/informationmodel/IPlantInfo.ts -->
<g id="node20" class="node">
<title>src/informationmodel/IPlantInfo.ts</title>
<g id="a_node20"><a xlink:href="src/informationmodel/IPlantInfo.ts" xlink:title="IPlantInfo.ts">
<path fill="#ffffcc" stroke="#000000" d="M585.3153,-175C585.3153,-175 533.5914,-175 533.5914,-175 530.7581,-175 527.9248,-172.1667 527.9248,-169.3333 527.9248,-169.3333 527.9248,-163.6667 527.9248,-163.6667 527.9248,-160.8333 530.7581,-158 533.5914,-158 533.5914,-158 585.3153,-158 585.3153,-158 588.1486,-158 590.982,-160.8333 590.982,-163.6667 590.982,-163.6667 590.982,-169.3333 590.982,-169.3333 590.982,-172.1667 588.1486,-175 585.3153,-175"/>
<text text-anchor="middle" x="559.4534" y="-163.8" font-family="Helvetica,sans-Serif" font-size="9.00" fill="#000000">IPlantInfo.ts</text>
</a>
</g>
</g>
<!-- src/informationmodel/IPlayerInfo.ts -->
<g id="node21" class="node">
<title>src/informationmodel/IPlayerInfo.ts</title>
<g id="a_node21"><a xlink:href="src/informationmodel/IPlayerInfo.ts" xlink:title="IPlayerInfo.ts">
<path fill="#ffffcc" stroke="#000000" d="M587.8118,-146C587.8118,-146 531.095,-146 531.095,-146 528.2616,-146 525.4283,-143.1667 525.4283,-140.3333 525.4283,-140.3333 525.4283,-134.6667 525.4283,-134.6667 525.4283,-131.8333 528.2616,-129 531.095,-129 531.095,-129 587.8118,-129 587.8118,-129 590.6451,-129 593.4785,-131.8333 593.4785,-134.6667 593.4785,-134.6667 593.4785,-140.3333 593.4785,-140.3333 593.4785,-143.1667 590.6451,-146 587.8118,-146"/>
<text text-anchor="middle" x="559.4534" y="-134.8" font-family="Helvetica,sans-Serif" font-size="9.00" fill="#000000">IPlayerInfo.ts</text>
</a>
</g>
</g>
<!-- src/informationmodel/ISettingsInfo.ts -->
<g id="node22" class="node">
<title>src/informationmodel/ISettingsInfo.ts</title>
<g id="a_node22"><a xlink:href="src/informationmodel/ISettingsInfo.ts" xlink:title="ISettingsInfo.ts">
<path fill="#ffffcc" stroke="#000000" d="M591.3209,-117C591.3209,-117 527.5859,-117 527.5859,-117 524.7526,-117 521.9192,-114.1667 521.9192,-111.3333 521.9192,-111.3333 521.9192,-105.6667 521.9192,-105.6667 521.9192,-102.8333 524.7526,-100 527.5859,-100 527.5859,-100 591.3209,-100 591.3209,-100 594.1542,-100 596.9875,-102.8333 596.9875,-105.6667 596.9875,-105.6667 596.9875,-111.3333 596.9875,-111.3333 596.9875,-114.1667 594.1542,-117 591.3209,-117"/>
<text text-anchor="middle" x="559.4534" y="-105.8" font-family="Helvetica,sans-Serif" font-size="9.00" fill="#000000">ISettingsInfo.ts</text>
</a>
</g>
</g>
<!-- src/informationmodel/ISpell.ts -->
<g id="node23" class="node">
<title>src/informationmodel/ISpell.ts</title>
<g id="a_node23"><a xlink:href="src/informationmodel/ISpell.ts" xlink:title="ISpell.ts">
<path fill="#ffffcc" stroke="#000000" d="M580.7867,-88C580.7867,-88 538.12,-88 538.12,-88 535.2867,-88 532.4534,-85.1667 532.4534,-82.3333 532.4534,-82.3333 532.4534,-76.6667 532.4534,-76.6667 532.4534,-73.8333 535.2867,-71 538.12,-71 538.12,-71 580.7867,-71 580.7867,-71 583.62,-71 586.4534,-73.8333 586.4534,-76.6667 586.4534,-76.6667 586.4534,-82.3333 586.4534,-82.3333 586.4534,-85.1667 583.62,-88 580.7867,-88"/>
<text text-anchor="middle" x="559.4534" y="-76.8" font-family="Helvetica,sans-Serif" font-size="9.00" fill="#000000">ISpell.ts</text>
</a>
</g>
</g>
<!-- src/interfaces/IGameModel.ts -->
<g id="node24" class="node">
<title>src/interfaces/IGameModel.ts</title>
<g id="a_node24"><a xlink:href="src/interfaces/IGameModel.ts" xlink:title="IGameModel.ts">
<path fill="#ffffcc" stroke="#000000" d="M117.6204,-849C117.6204,-849 51.9089,-849 51.9089,-849 49.0755,-849 46.2422,-846.1667 46.2422,-843.3333 46.2422,-843.3333 46.2422,-837.6667 46.2422,-837.6667 46.2422,-834.8333 49.0755,-832 51.9089,-832 51.9089,-832 117.6204,-832 117.6204,-832 120.4538,-832 123.2871,-834.8333 123.2871,-837.6667 123.2871,-837.6667 123.2871,-843.3333 123.2871,-843.3333 123.2871,-846.1667 120.4538,-849 117.6204,-849"/>
<text text-anchor="middle" x="84.7646" y="-837.8" font-family="Helvetica,sans-Serif" font-size="9.00" fill="#000000">IGameModel.ts</text>
</a>
</g>
</g>
<!-- src/interfaces/IServerAdapter.ts -->
<g id="node25" class="node">
<title>src/interfaces/IServerAdapter.ts</title>
<g id="a_node25"><a xlink:href="src/interfaces/IServerAdapter.ts" xlink:title="IServerAdapter.ts">
<path fill="#ffffcc" stroke="#000000" d="M121.6383,-820C121.6383,-820 47.891,-820 47.891,-820 45.0577,-820 42.2244,-817.1667 42.2244,-814.3333 42.2244,-814.3333 42.2244,-808.6667 42.2244,-808.6667 42.2244,-805.8333 45.0577,-803 47.891,-803 47.891,-803 121.6383,-803 121.6383,-803 124.4716,-803 127.3049,-805.8333 127.3049,-808.6667 127.3049,-808.6667 127.3049,-814.3333 127.3049,-814.3333 127.3049,-817.1667 124.4716,-820 121.6383,-820"/>
<text text-anchor="middle" x="84.7646" y="-808.8" font-family="Helvetica,sans-Serif" font-size="9.00" fill="#000000">IServerAdapter.ts</text>
</a>
</g>
</g>
<!-- src/interfaces/IServerController.ts -->
<g id="node26" class="node">
<title>src/interfaces/IServerController.ts</title>
<g id="a_node26"><a xlink:href="src/interfaces/IServerController.ts" xlink:title="IServerController.ts">
<path fill="#ffffcc" stroke="#000000" d="M125.6297,-791C125.6297,-791 43.8996,-791 43.8996,-791 41.0662,-791 38.2329,-788.1667 38.2329,-785.3333 38.2329,-785.3333 38.2329,-779.6667 38.2329,-779.6667 38.2329,-776.8333 41.0662,-774 43.8996,-774 43.8996,-774 125.6297,-774 125.6297,-774 128.4631,-774 131.2964,-776.8333 131.2964,-779.6667 131.2964,-779.6667 131.2964,-785.3333 131.2964,-785.3333 131.2964,-788.1667 128.4631,-791 125.6297,-791"/>
<text text-anchor="middle" x="84.7646" y="-779.8" font-family="Helvetica,sans-Serif" font-size="9.00" fill="#000000">IServerController.ts</text>
</a>
</g>
</g>
<!-- src/public/js/BoardView.ts -->
<g id="node27" class="node">
<title>src/public/js/BoardView.ts</title>
<g id="a_node27"><a xlink:href="src/public/js/BoardView.ts" xlink:title="BoardView.ts">
<path fill="#ffffcc" stroke="#000000" d="M469.712,-416C469.712,-416 412.2953,-416 412.2953,-416 409.4619,-416 406.6286,-413.1667 406.6286,-410.3333 406.6286,-410.3333 406.6286,-404.6667 406.6286,-404.6667 406.6286,-401.8333 409.4619,-399 412.2953,-399 412.2953,-399 469.712,-399 469.712,-399 472.5454,-399 475.3787,-401.8333 475.3787,-404.6667 475.3787,-404.6667 475.3787,-410.3333 475.3787,-410.3333 475.3787,-413.1667 472.5454,-416 469.712,-416"/>
<text text-anchor="middle" x="441.0037" y="-404.8" font-family="Helvetica,sans-Serif" font-size="9.00" fill="#000000">BoardView.ts</text>
</a>
</g>
</g>
<!-- src/public/js/Camera.ts -->
<g id="node28" class="node">
<title>src/public/js/Camera.ts</title>
<g id="a_node28"><a xlink:href="src/public/js/Camera.ts" xlink:title="Camera.ts">
<path fill="#ffffcc" stroke="#000000" d="M107.6108,-590C107.6108,-590 61.9185,-590 61.9185,-590 59.0852,-590 56.2518,-587.1667 56.2518,-584.3333 56.2518,-584.3333 56.2518,-578.6667 56.2518,-578.6667 56.2518,-575.8333 59.0852,-573 61.9185,-573 61.9185,-573 107.6108,-573 107.6108,-573 110.4441,-573 113.2775,-575.8333 113.2775,-578.6667 113.2775,-578.6667 113.2775,-584.3333 113.2775,-584.3333 113.2775,-587.1667 110.4441,-590 107.6108,-590"/>
<text text-anchor="middle" x="84.7646" y="-578.8" font-family="Helvetica,sans-Serif" font-size="9.00" fill="#000000">Camera.ts</text>
</a>
</g>
</g>
<!-- src/public/js/Client.ts -->
<g id="node29" class="node">
<title>src/public/js/Client.ts</title>
<g id="a_node29"><a xlink:href="src/public/js/Client.ts" xlink:title="Client.ts">
<path fill="#ffffcc" stroke="#000000" d="M226.3692,-329C226.3692,-329 183.7026,-329 183.7026,-329 180.8692,-329 178.0359,-326.1667 178.0359,-323.3333 178.0359,-323.3333 178.0359,-317.6667 178.0359,-317.6667 178.0359,-314.8333 180.8692,-312 183.7026,-312 183.7026,-312 226.3692,-312 226.3692,-312 229.2026,-312 232.0359,-314.8333 232.0359,-317.6667 232.0359,-317.6667 232.0359,-323.3333 232.0359,-323.3333 232.0359,-326.1667 229.2026,-329 226.3692,-329"/>
<text text-anchor="middle" x="205.0359" y="-317.8" font-family="Helvetica,sans-Serif" font-size="9.00" fill="#000000">Client.ts</text>
</a>
</g>
</g>
<!-- src/public/js/View.ts -->
<g id="node44" class="node">
<title>src/public/js/View.ts</title>
<g id="a_node44"><a xlink:href="src/public/js/View.ts" xlink:title="View.ts">
<path fill="#ffffcc" stroke="#000000" d="M345.3902,-329C345.3902,-329 302.7236,-329 302.7236,-329 299.8902,-329 297.0569,-326.1667 297.0569,-323.3333 297.0569,-323.3333 297.0569,-317.6667 297.0569,-317.6667 297.0569,-314.8333 299.8902,-312 302.7236,-312 302.7236,-312 345.3902,-312 345.3902,-312 348.2236,-312 351.0569,-314.8333 351.0569,-317.6667 351.0569,-317.6667 351.0569,-323.3333 351.0569,-323.3333 351.0569,-326.1667 348.2236,-329 345.3902,-329"/>
<text text-anchor="middle" x="324.0569" y="-317.8" font-family="Helvetica,sans-Serif" font-size="9.00" fill="#000000">View.ts</text>
</a>
</g>
</g>
<!-- src/public/js/Client.ts&#45;&gt;src/public/js/View.ts -->
<g id="edge6" class="edge">
<title>src/public/js/Client.ts&#45;&gt;src/public/js/View.ts</title>
<path fill="none" stroke="#000000" d="M232.0436,-320.5C248.2117,-320.5 268.9971,-320.5 286.7206,-320.5"/>
<polygon fill="#000000" stroke="#000000" points="286.7441,-324.0001 296.7441,-320.5 286.744,-317.0001 286.7441,-324.0001"/>
</g>
<!-- src/public/js/ClientAdapter.ts -->
<g id="node30" class="node">
<title>src/public/js/ClientAdapter.ts</title>
<g id="a_node30"><a xlink:href="src/public/js/ClientAdapter.ts" xlink:title="ClientAdapter.ts">
<path fill="#ffffcc" stroke="#000000" d="M357.9321,-387C357.9321,-387 290.1817,-387 290.1817,-387 287.3484,-387 284.515,-384.1667 284.515,-381.3333 284.515,-381.3333 284.515,-375.6667 284.515,-375.6667 284.515,-372.8333 287.3484,-370 290.1817,-370 290.1817,-370 357.9321,-370 357.9321,-370 360.7654,-370 363.5987,-372.8333 363.5987,-375.6667 363.5987,-375.6667 363.5987,-381.3333 363.5987,-381.3333 363.5987,-384.1667 360.7654,-387 357.9321,-387"/>
<text text-anchor="middle" x="324.0569" y="-375.8" font-family="Helvetica,sans-Serif" font-size="9.00" fill="#000000">ClientAdapter.ts</text>
</a>
</g>
</g>
<!-- src/public/js/ClientController.ts -->
<g id="node31" class="node">
<title>src/public/js/ClientController.ts</title>
<g id="a_node31"><a xlink:href="src/public/js/ClientController.ts" xlink:title="ClientController.ts">
<path fill="#ffffcc" stroke="#000000" d="M361.9234,-358C361.9234,-358 286.1903,-358 286.1903,-358 283.357,-358 280.5237,-355.1667 280.5237,-352.3333 280.5237,-352.3333 280.5237,-346.6667 280.5237,-346.6667 280.5237,-343.8333 283.357,-341 286.1903,-341 286.1903,-341 361.9234,-341 361.9234,-341 364.7568,-341 367.5901,-343.8333 367.5901,-346.6667 367.5901,-346.6667 367.5901,-352.3333 367.5901,-352.3333 367.5901,-355.1667 364.7568,-358 361.9234,-358"/>
<text text-anchor="middle" x="324.0569" y="-346.8" font-family="Helvetica,sans-Serif" font-size="9.00" fill="#000000">ClientController.ts</text>
</a>
</g>
</g>
<!-- src/public/js/ClientController.ts&#45;&gt;events -->
<g id="edge7" class="edge">
<title>src/public/js/ClientController.ts&#45;&gt;events</title>
<path fill="none" stroke="#c0c0c0" d="M363.4813,-340.7248C365.6467,-339.2412 367.6262,-337.5128 369.3225,-335.5 449.0417,-240.9064 338.1517,-163.3807 405.3225,-59.5 407.1402,-56.6888 409.4568,-54.1776 412.0342,-51.9493"/>
<polygon fill="#c0c0c0" stroke="#c0c0c0" points="414.1672,-54.7277 420.311,-46.0961 410.1255,-49.0124 414.1672,-54.7277"/>
</g>
<!-- src/public/js/ClientFabrik.ts -->
<g id="node32" class="node">
<title>src/public/js/ClientFabrik.ts</title>
<g id="a_node32"><a xlink:href="src/public/js/ClientFabrik.ts" xlink:title="ClientFabrik.ts">
<path fill="#ffffcc" stroke="#000000" d="M235.8864,-387C235.8864,-387 174.1853,-387 174.1853,-387 171.352,-387 168.5187,-384.1667 168.5187,-381.3333 168.5187,-381.3333 168.5187,-375.6667 168.5187,-375.6667 168.5187,-372.8333 171.352,-370 174.1853,-370 174.1853,-370 235.8864,-370 235.8864,-370 238.7198,-370 241.5531,-372.8333 241.5531,-375.6667 241.5531,-375.6667 241.5531,-381.3333 241.5531,-381.3333 241.5531,-384.1667 238.7198,-387 235.8864,-387"/>
<text text-anchor="middle" x="205.0359" y="-375.8" font-family="Helvetica,sans-Serif" font-size="9.00" fill="#000000">ClientFabrik.ts</text>
</a>
</g>
</g>
<!-- src/public/js/ClientFabrik.ts&#45;&gt;src/public/js/ClientAdapter.ts -->
<g id="edge8" class="edge">
<title>src/public/js/ClientFabrik.ts&#45;&gt;src/public/js/ClientAdapter.ts</title>
<path fill="none" stroke="#000000" d="M241.7173,-378.5C251.966,-378.5 263.2794,-378.5 274.1532,-378.5"/>
<polygon fill="#000000" stroke="#000000" points="274.3949,-382.0001 284.3949,-378.5 274.3949,-375.0001 274.3949,-382.0001"/>
</g>
<!-- src/public/js/ClientFabrik.ts&#45;&gt;src/public/js/ClientController.ts -->
<g id="edge9" class="edge">
<title>src/public/js/ClientFabrik.ts&#45;&gt;src/public/js/ClientController.ts</title>
<path fill="none" stroke="#000000" d="M240.1024,-369.9559C252.2223,-367.0028 265.9794,-363.6509 278.7989,-360.5273"/>
<polygon fill="#000000" stroke="#000000" points="279.9426,-363.8511 288.8298,-358.0832 278.2854,-357.0501 279.9426,-363.8511"/>
</g>
<!-- src/public/js/Cursor.ts -->
<g id="node33" class="node">
<title>src/public/js/Cursor.ts</title>
<g id="a_node33"><a xlink:href="src/public/js/Cursor.ts" xlink:title="Cursor.ts">
<path fill="#ffffcc" stroke="#000000" d="M345.3902,-416C345.3902,-416 302.7236,-416 302.7236,-416 299.8902,-416 297.0569,-413.1667 297.0569,-410.3333 297.0569,-410.3333 297.0569,-404.6667 297.0569,-404.6667 297.0569,-401.8333 299.8902,-399 302.7236,-399 302.7236,-399 345.3902,-399 345.3902,-399 348.2236,-399 351.0569,-401.8333 351.0569,-404.6667 351.0569,-404.6667 351.0569,-410.3333 351.0569,-410.3333 351.0569,-413.1667 348.2236,-416 345.3902,-416"/>
<text text-anchor="middle" x="324.0569" y="-404.8" font-family="Helvetica,sans-Serif" font-size="9.00" fill="#000000">Cursor.ts</text>
</a>
</g>
</g>
<!-- src/public/js/ClientFabrik.ts&#45;&gt;src/public/js/Cursor.ts -->
<g id="edge10" class="edge">
<title>src/public/js/ClientFabrik.ts&#45;&gt;src/public/js/Cursor.ts</title>
<path fill="none" stroke="#000000" d="M240.1024,-387.0441C254.8108,-390.6279 271.9305,-394.7992 286.8595,-398.4367"/>
<polygon fill="#000000" stroke="#000000" points="286.244,-401.8891 296.7884,-400.8559 287.9012,-395.088 286.244,-401.8891"/>
</g>
<!-- src/public/js/ViewBuilder.ts -->
<g id="node45" class="node">
<title>src/public/js/ViewBuilder.ts</title>
<g id="a_node45"><a xlink:href="src/public/js/ViewBuilder.ts" xlink:title="ViewBuilder.ts">
<path fill="#ffffcc" stroke="#000000" d="M354.7642,-445C354.7642,-445 293.3495,-445 293.3495,-445 290.5162,-445 287.6829,-442.1667 287.6829,-439.3333 287.6829,-439.3333 287.6829,-433.6667 287.6829,-433.6667 287.6829,-430.8333 290.5162,-428 293.3495,-428 293.3495,-428 354.7642,-428 354.7642,-428 357.5976,-428 360.4309,-430.8333 360.4309,-433.6667 360.4309,-433.6667 360.4309,-439.3333 360.4309,-439.3333 360.4309,-442.1667 357.5976,-445 354.7642,-445"/>
<text text-anchor="middle" x="324.0569" y="-433.8" font-family="Helvetica,sans-Serif" font-size="9.00" fill="#000000">ViewBuilder.ts</text>
</a>
</g>
</g>
<!-- src/public/js/ClientFabrik.ts&#45;&gt;src/public/js/ViewBuilder.ts -->
<g id="edge11" class="edge">
<title>src/public/js/ClientFabrik.ts&#45;&gt;src/public/js/ViewBuilder.ts</title>
<path fill="none" stroke="#000000" d="M215.5457,-387.1624C228.0086,-397.0329 249.7524,-413.0195 270.7913,-422.5 273.1177,-423.5483 275.538,-424.5303 278.0072,-425.4482"/>
<polygon fill="#000000" stroke="#000000" points="277.0853,-428.8303 287.679,-428.6768 279.3018,-422.1904 277.0853,-428.8303"/>
</g>
<!-- src/public/js/Cursor.ts&#45;&gt;events -->
<g id="edge12" class="edge">
<title>src/public/js/Cursor.ts&#45;&gt;events</title>
<path fill="none" stroke="#c0c0c0" d="M351.4787,-404.4016C358.24,-402.3316 364.8243,-398.96 369.3225,-393.5 464.2573,-278.2648 325.6571,-185.7742 405.3225,-59.5 407.1087,-56.6687 409.4051,-54.1446 411.9706,-51.9087"/>
<polygon fill="#c0c0c0" stroke="#c0c0c0" points="414.1027,-54.6874 420.2335,-46.0465 410.0523,-48.9783 414.1027,-54.6874"/>
</g>
<!-- src/public/js/CursorView.ts -->
<g id="node34" class="node">
<title>src/public/js/CursorView.ts</title>
<g id="a_node34"><a xlink:href="src/public/js/CursorView.ts" xlink:title="CursorView.ts">
<path fill="#ffffcc" stroke="#000000" d="M471.2002,-445C471.2002,-445 410.8071,-445 410.8071,-445 407.9738,-445 405.1404,-442.1667 405.1404,-439.3333 405.1404,-439.3333 405.1404,-433.6667 405.1404,-433.6667 405.1404,-430.8333 407.9738,-428 410.8071,-428 410.8071,-428 471.2002,-428 471.2002,-428 474.0336,-428 476.8669,-430.8333 476.8669,-433.6667 476.8669,-433.6667 476.8669,-439.3333 476.8669,-439.3333 476.8669,-442.1667 474.0336,-445 471.2002,-445"/>
<text text-anchor="middle" x="441.0037" y="-433.8" font-family="Helvetica,sans-Serif" font-size="9.00" fill="#000000">CursorView.ts</text>
</a>
</g>
</g>
<!-- src/public/js/FightingBoard.ts -->
<g id="node35" class="node">
<title>src/public/js/FightingBoard.ts</title>
<g id="a_node35"><a xlink:href="src/public/js/FightingBoard.ts" xlink:title="FightingBoard.ts">
<path fill="#ffffcc" stroke="#000000" d="M119.6349,-561C119.6349,-561 49.8944,-561 49.8944,-561 47.061,-561 44.2277,-558.1667 44.2277,-555.3333 44.2277,-555.3333 44.2277,-549.6667 44.2277,-549.6667 44.2277,-546.8333 47.061,-544 49.8944,-544 49.8944,-544 119.6349,-544 119.6349,-544 122.4683,-544 125.3016,-546.8333 125.3016,-549.6667 125.3016,-549.6667 125.3016,-555.3333 125.3016,-555.3333 125.3016,-558.1667 122.4683,-561 119.6349,-561"/>
<text text-anchor="middle" x="84.7646" y="-549.8" font-family="Helvetica,sans-Serif" font-size="9.00" fill="#000000">FightingBoard.ts</text>
</a>
</g>
</g>
<!-- src/public/js/Figure.ts -->
<g id="node36" class="node">
<title>src/public/js/Figure.ts</title>
<g id="a_node36"><a xlink:href="src/public/js/Figure.ts" xlink:title="Figure.ts">
<path fill="#ffffcc" stroke="#000000" d="M106.098,-532C106.098,-532 63.4313,-532 63.4313,-532 60.598,-532 57.7646,-529.1667 57.7646,-526.3333 57.7646,-526.3333 57.7646,-520.6667 57.7646,-520.6667 57.7646,-517.8333 60.598,-515 63.4313,-515 63.4313,-515 106.098,-515 106.098,-515 108.9313,-515 111.7646,-517.8333 111.7646,-520.6667 111.7646,-520.6667 111.7646,-526.3333 111.7646,-526.3333 111.7646,-529.1667 108.9313,-532 106.098,-532"/>
<text text-anchor="middle" x="84.7646" y="-520.8" font-family="Helvetica,sans-Serif" font-size="9.00" fill="#000000">Figure.ts</text>
</a>
</g>
</g>
<!-- src/public/js/IClientAdapter.ts -->
<g id="node37" class="node">
<title>src/public/js/IClientAdapter.ts</title>
<g id="a_node37"><a xlink:href="src/public/js/IClientAdapter.ts" xlink:title="IClientAdapter.ts">
<path fill="#ffffcc" stroke="#000000" d="M120.139,-503C120.139,-503 49.3903,-503 49.3903,-503 46.557,-503 43.7236,-500.1667 43.7236,-497.3333 43.7236,-497.3333 43.7236,-491.6667 43.7236,-491.6667 43.7236,-488.8333 46.557,-486 49.3903,-486 49.3903,-486 120.139,-486 120.139,-486 122.9723,-486 125.8057,-488.8333 125.8057,-491.6667 125.8057,-491.6667 125.8057,-497.3333 125.8057,-497.3333 125.8057,-500.1667 122.9723,-503 120.139,-503"/>
<text text-anchor="middle" x="84.7646" y="-491.8" font-family="Helvetica,sans-Serif" font-size="9.00" fill="#000000">IClientAdapter.ts</text>
</a>
</g>
</g>
<!-- src/public/js/IClientController.ts -->
<g id="node38" class="node">
<title>src/public/js/IClientController.ts</title>
<g id="a_node38"><a xlink:href="src/public/js/IClientController.ts" xlink:title="IClientController.ts">
<path fill="#ffffcc" stroke="#000000" d="M123.6329,-474C123.6329,-474 45.8964,-474 45.8964,-474 43.0631,-474 40.2297,-471.1667 40.2297,-468.3333 40.2297,-468.3333 40.2297,-462.6667 40.2297,-462.6667 40.2297,-459.8333 43.0631,-457 45.8964,-457 45.8964,-457 123.6329,-457 123.6329,-457 126.4662,-457 129.2995,-459.8333 129.2995,-462.6667 129.2995,-462.6667 129.2995,-468.3333 129.2995,-468.3333 129.2995,-471.1667 126.4662,-474 123.6329,-474"/>
<text text-anchor="middle" x="84.7646" y="-462.8" font-family="Helvetica,sans-Serif" font-size="9.00" fill="#000000">IClientController.ts</text>
</a>
</g>
</g>
<!-- src/public/js/IView.ts -->
<g id="node39" class="node">
<title>src/public/js/IView.ts</title>
<g id="a_node39"><a xlink:href="src/public/js/IView.ts" xlink:title="IView.ts">
<path fill="#ffffcc" stroke="#000000" d="M106.098,-445C106.098,-445 63.4313,-445 63.4313,-445 60.598,-445 57.7646,-442.1667 57.7646,-439.3333 57.7646,-439.3333 57.7646,-433.6667 57.7646,-433.6667 57.7646,-430.8333 60.598,-428 63.4313,-428 63.4313,-428 106.098,-428 106.098,-428 108.9313,-428 111.7646,-430.8333 111.7646,-433.6667 111.7646,-433.6667 111.7646,-439.3333 111.7646,-439.3333 111.7646,-442.1667 108.9313,-445 106.098,-445"/>
<text text-anchor="middle" x="84.7646" y="-433.8" font-family="Helvetica,sans-Serif" font-size="9.00" fill="#000000">IView.ts</text>
</a>
</g>
</g>
<!-- src/public/js/IViewBuilder.ts -->
<g id="node40" class="node">
<title>src/public/js/IViewBuilder.ts</title>
<g id="a_node40"><a xlink:href="src/public/js/IViewBuilder.ts" xlink:title="IViewBuilder.ts">
<path fill="#ffffcc" stroke="#000000" d="M116.4716,-416C116.4716,-416 53.0577,-416 53.0577,-416 50.2243,-416 47.391,-413.1667 47.391,-410.3333 47.391,-410.3333 47.391,-404.6667 47.391,-404.6667 47.391,-401.8333 50.2243,-399 53.0577,-399 53.0577,-399 116.4716,-399 116.4716,-399 119.305,-399 122.1383,-401.8333 122.1383,-404.6667 122.1383,-404.6667 122.1383,-410.3333 122.1383,-410.3333 122.1383,-413.1667 119.305,-416 116.4716,-416"/>
<text text-anchor="middle" x="84.7646" y="-404.8" font-family="Helvetica,sans-Serif" font-size="9.00" fill="#000000">IViewBuilder.ts</text>
</a>
</g>
</g>
<!-- src/public/js/PawnView.ts -->
<g id="node41" class="node">
<title>src/public/js/PawnView.ts</title>
<g id="a_node41"><a xlink:href="src/public/js/PawnView.ts" xlink:title="PawnView.ts">
<path fill="#ffffcc" stroke="#000000" d="M468.7082,-474C468.7082,-474 413.2991,-474 413.2991,-474 410.4658,-474 407.6324,-471.1667 407.6324,-468.3333 407.6324,-468.3333 407.6324,-462.6667 407.6324,-462.6667 407.6324,-459.8333 410.4658,-457 413.2991,-457 413.2991,-457 468.7082,-457 468.7082,-457 471.5415,-457 474.3749,-459.8333 474.3749,-462.6667 474.3749,-462.6667 474.3749,-468.3333 474.3749,-468.3333 474.3749,-471.1667 471.5415,-474 468.7082,-474"/>
<text text-anchor="middle" x="441.0037" y="-462.8" font-family="Helvetica,sans-Serif" font-size="9.00" fill="#000000">PawnView.ts</text>
</a>
</g>
</g>
<!-- src/public/js/Renderer.ts -->
<g id="node42" class="node">
<title>src/public/js/Renderer.ts</title>
<g id="a_node42"><a xlink:href="src/public/js/Renderer.ts" xlink:title="Renderer.ts">
<path fill="#ffffcc" stroke="#000000" d="M110.129,-387C110.129,-387 59.4003,-387 59.4003,-387 56.5669,-387 53.7336,-384.1667 53.7336,-381.3333 53.7336,-381.3333 53.7336,-375.6667 53.7336,-375.6667 53.7336,-372.8333 56.5669,-370 59.4003,-370 59.4003,-370 110.129,-370 110.129,-370 112.9624,-370 115.7957,-372.8333 115.7957,-375.6667 115.7957,-375.6667 115.7957,-381.3333 115.7957,-381.3333 115.7957,-384.1667 112.9624,-387 110.129,-387"/>
<text text-anchor="middle" x="84.7646" y="-375.8" font-family="Helvetica,sans-Serif" font-size="9.00" fill="#000000">Renderer.ts</text>
</a>
</g>
</g>
<!-- src/public/js/Scene.ts -->
<g id="node43" class="node">
<title>src/public/js/Scene.ts</title>
<g id="a_node43"><a xlink:href="src/public/js/Scene.ts" xlink:title="Scene.ts">
<path fill="#ffffcc" stroke="#000000" d="M106.098,-358C106.098,-358 63.4313,-358 63.4313,-358 60.598,-358 57.7646,-355.1667 57.7646,-352.3333 57.7646,-352.3333 57.7646,-346.6667 57.7646,-346.6667 57.7646,-343.8333 60.598,-341 63.4313,-341 63.4313,-341 106.098,-341 106.098,-341 108.9313,-341 111.7646,-343.8333 111.7646,-346.6667 111.7646,-346.6667 111.7646,-352.3333 111.7646,-352.3333 111.7646,-355.1667 108.9313,-358 106.098,-358"/>
<text text-anchor="middle" x="84.7646" y="-346.8" font-family="Helvetica,sans-Serif" font-size="9.00" fill="#000000">Scene.ts</text>
</a>
</g>
</g>
<!-- src/public/js/View.ts&#45;&gt;events -->
<g id="edge13" class="edge">
<title>src/public/js/View.ts&#45;&gt;events</title>
<path fill="none" stroke="#c0c0c0" d="M344.1026,-311.9105C353.2323,-306.9713 363.3187,-299.8657 369.3225,-290.5 425.3982,-203.0245 347.821,-146.0449 405.3225,-59.5 407.1751,-56.7117 409.514,-54.2151 412.1045,-51.9954"/>
<polygon fill="#c0c0c0" stroke="#c0c0c0" points="414.2384,-54.7735 420.3969,-46.1523 410.2063,-49.0514 414.2384,-54.7735"/>
</g>
<!-- src/public/js/ViewBuilder.ts&#45;&gt;src/public/js/BoardView.ts -->
<g id="edge14" class="edge">
<title>src/public/js/ViewBuilder.ts&#45;&gt;src/public/js/BoardView.ts</title>
<path fill="none" stroke="#000000" d="M358.5123,-427.9559C370.5273,-424.9765 384.1798,-421.591 396.8716,-418.4437"/>
<polygon fill="#000000" stroke="#000000" points="397.931,-421.7871 406.7946,-415.983 396.2461,-414.9929 397.931,-421.7871"/>
</g>
<!-- src/public/js/ViewBuilder.ts&#45;&gt;src/public/js/CursorView.ts -->
<g id="edge15" class="edge">
<title>src/public/js/ViewBuilder.ts&#45;&gt;src/public/js/CursorView.ts</title>
<path fill="none" stroke="#000000" d="M360.4185,-436.5C371.3017,-436.5 383.3833,-436.5 394.8098,-436.5"/>
<polygon fill="#000000" stroke="#000000" points="395.0662,-440.0001 405.0662,-436.5 395.0662,-433.0001 395.0662,-440.0001"/>
</g>
<!-- src/public/js/ViewBuilder.ts&#45;&gt;src/public/js/PawnView.ts -->
<g id="edge16" class="edge">
<title>src/public/js/ViewBuilder.ts&#45;&gt;src/public/js/PawnView.ts</title>
<path fill="none" stroke="#000000" d="M358.5123,-445.0441C370.7399,-448.0763 384.6636,-451.529 397.5446,-454.7232"/>
<polygon fill="#000000" stroke="#000000" points="397.0506,-458.2066 407.599,-457.2165 398.7354,-451.4124 397.0506,-458.2066"/>
</g>
<!-- src/public/js/lib/OrbitControls.js -->
<g id="node46" class="node">
<title>src/public/js/lib/OrbitControls.js</title>
<g id="a_node46"><a xlink:href="src/public/js/lib/OrbitControls.js" xlink:title="OrbitControls.js">
<path fill="#ffffcc" stroke="#000000" d="M118.1136,-682C118.1136,-682 51.4157,-682 51.4157,-682 48.5824,-682 45.749,-679.1667 45.749,-676.3333 45.749,-676.3333 45.749,-670.6667 45.749,-670.6667 45.749,-667.8333 48.5824,-665 51.4157,-665 51.4157,-665 118.1136,-665 118.1136,-665 120.9469,-665 123.7803,-667.8333 123.7803,-670.6667 123.7803,-670.6667 123.7803,-676.3333 123.7803,-676.3333 123.7803,-679.1667 120.9469,-682 118.1136,-682"/>
<text text-anchor="middle" x="84.7646" y="-670.8" font-family="Helvetica,sans-Serif" font-size="9.00" fill="#000000">OrbitControls.js</text>
</a>
</g>
</g>
<!-- src/public/js/lib/jquery&#45;3.1.1.min.js -->
<g id="node47" class="node">
<title>src/public/js/lib/jquery&#45;3.1.1.min.js</title>
<g id="a_node47"><a xlink:href="src/public/js/lib/jquery-3.1.1.min.js" xlink:title="jquery&#45;3.1.1.min.js">
<path fill="#ffffcc" stroke="#000000" d="M123.6285,-653C123.6285,-653 45.9008,-653 45.9008,-653 43.0675,-653 40.2341,-650.1667 40.2341,-647.3333 40.2341,-647.3333 40.2341,-641.6667 40.2341,-641.6667 40.2341,-638.8333 43.0675,-636 45.9008,-636 45.9008,-636 123.6285,-636 123.6285,-636 126.4618,-636 129.2952,-638.8333 129.2952,-641.6667 129.2952,-641.6667 129.2952,-647.3333 129.2952,-647.3333 129.2952,-650.1667 126.4618,-653 123.6285,-653"/>
<text text-anchor="middle" x="84.7646" y="-641.8" font-family="Helvetica,sans-Serif" font-size="9.00" fill="#000000">jquery&#45;3.1.1.min.js</text>
</a>
</g>
</g>
<!-- src/public/js/lib/three.min.js -->
<g id="node48" class="node">
<title>src/public/js/lib/three.min.js</title>
<g id="a_node48"><a xlink:href="src/public/js/lib/three.min.js" xlink:title="three.min.js">
<path fill="#ffffcc" stroke="#000000" d="M110.116,-624C110.116,-624 59.4133,-624 59.4133,-624 56.58,-624 53.7467,-621.1667 53.7467,-618.3333 53.7467,-618.3333 53.7467,-612.6667 53.7467,-612.6667 53.7467,-609.8333 56.58,-607 59.4133,-607 59.4133,-607 110.116,-607 110.116,-607 112.9493,-607 115.7826,-609.8333 115.7826,-612.6667 115.7826,-612.6667 115.7826,-618.3333 115.7826,-618.3333 115.7826,-621.1667 112.9493,-624 110.116,-624"/>
<text text-anchor="middle" x="84.7646" y="-612.8" font-family="Helvetica,sans-Serif" font-size="9.00" fill="#000000">three.min.js</text>
</a>
</g>
</g>
<!-- src/public/js/main.ts -->
<g id="node49" class="node">
<title>src/public/js/main.ts</title>
<g id="a_node49"><a xlink:href="src/public/js/main.ts" xlink:title="main.ts">
<path fill="#ffffcc" stroke="#000000" d="M106.098,-329C106.098,-329 63.4313,-329 63.4313,-329 60.598,-329 57.7646,-326.1667 57.7646,-323.3333 57.7646,-323.3333 57.7646,-317.6667 57.7646,-317.6667 57.7646,-314.8333 60.598,-312 63.4313,-312 63.4313,-312 106.098,-312 106.098,-312 108.9313,-312 111.7646,-314.8333 111.7646,-317.6667 111.7646,-317.6667 111.7646,-323.3333 111.7646,-323.3333 111.7646,-326.1667 108.9313,-329 106.098,-329"/>
<text text-anchor="middle" x="84.7646" y="-317.8" font-family="Helvetica,sans-Serif" font-size="9.00" fill="#000000">main.ts</text>
</a>
</g>
</g>
<!-- src/public/js/main.ts&#45;&gt;src/public/js/Client.ts -->
<g id="edge17" class="edge">
<title>src/public/js/main.ts&#45;&gt;src/public/js/Client.ts</title>
<path fill="none" stroke="#000000" d="M112.0561,-320.5C128.5099,-320.5 149.6959,-320.5 167.688,-320.5"/>
<polygon fill="#000000" stroke="#000000" points="167.8525,-324.0001 177.8525,-320.5 167.8525,-317.0001 167.8525,-324.0001"/>
</g>
<!-- src/public/js/main.ts&#45;&gt;src/public/js/ClientFabrik.ts -->
<g id="edge18" class="edge">
<title>src/public/js/main.ts&#45;&gt;src/public/js/ClientFabrik.ts</title>
<path fill="none" stroke="#000000" d="M111.9651,-326.2124C120.8769,-328.5463 130.6906,-331.6246 139.2805,-335.5 155.8887,-342.993 173.0677,-354.3738 185.7001,-363.5452"/>
<polygon fill="#000000" stroke="#000000" points="183.9117,-366.5773 194.0217,-369.7456 188.0941,-360.9641 183.9117,-366.5773"/>
</g>
<!-- src/server.ts -->
<g id="node50" class="node">
<title>src/server.ts</title>
<g id="a_node50"><a xlink:href="src/server.ts" xlink:title="server.ts">
<path fill="#ffffcc" stroke="#000000" d="M106.098,-146C106.098,-146 63.4313,-146 63.4313,-146 60.598,-146 57.7646,-143.1667 57.7646,-140.3333 57.7646,-140.3333 57.7646,-134.6667 57.7646,-134.6667 57.7646,-131.8333 60.598,-129 63.4313,-129 63.4313,-129 106.098,-129 106.098,-129 108.9313,-129 111.7646,-131.8333 111.7646,-134.6667 111.7646,-134.6667 111.7646,-140.3333 111.7646,-140.3333 111.7646,-143.1667 108.9313,-146 106.098,-146"/>
<text text-anchor="middle" x="84.7646" y="-134.8" font-family="Helvetica,sans-Serif" font-size="9.00" fill="#000000">server.ts</text>
</a>
</g>
</g>
<!-- src/server.ts&#45;&gt;path -->
<g id="edge21" class="edge">
<title>src/server.ts&#45;&gt;path</title>
<path fill="none" stroke="#c0c0c0" d="M90.8405,-128.9481C103.3255,-111.9457 133.5431,-73.6317 167.2805,-51.5 167.792,-51.1645 168.3126,-50.8355 168.8411,-50.5131"/>
<polygon fill="#c0c0c0" stroke="#c0c0c0" points="170.6123,-53.538 177.9039,-45.8514 167.4104,-47.3132 170.6123,-53.538"/>
</g>
<!-- src/server.ts&#45;&gt;src/implementations/ModelBuilder.ts -->
<g id="edge19" class="edge">
<title>src/server.ts&#45;&gt;src/implementations/ModelBuilder.ts</title>
<path fill="none" stroke="#000000" d="M112.2145,-144.1533C152.9862,-154.0356 230.0007,-172.7025 279.0831,-184.5992"/>
<polygon fill="#000000" stroke="#000000" points="278.2657,-188.0023 288.8088,-186.9565 279.9147,-181.1993 278.2657,-188.0023"/>
</g>
<!-- src/serverFabrik.ts -->
<g id="node51" class="node">
<title>src/serverFabrik.ts</title>
<g id="a_node51"><a xlink:href="src/serverFabrik.ts" xlink:title="serverFabrik.ts">
<path fill="#ffffcc" stroke="#000000" d="M236.8815,-146C236.8815,-146 173.1902,-146 173.1902,-146 170.3569,-146 167.5236,-143.1667 167.5236,-140.3333 167.5236,-140.3333 167.5236,-134.6667 167.5236,-134.6667 167.5236,-131.8333 170.3569,-129 173.1902,-129 173.1902,-129 236.8815,-129 236.8815,-129 239.7149,-129 242.5482,-131.8333 242.5482,-134.6667 242.5482,-134.6667 242.5482,-140.3333 242.5482,-140.3333 242.5482,-143.1667 239.7149,-146 236.8815,-146"/>
<text text-anchor="middle" x="205.0359" y="-134.8" font-family="Helvetica,sans-Serif" font-size="9.00" fill="#000000">serverFabrik.ts</text>
</a>
</g>
</g>
<!-- src/server.ts&#45;&gt;src/serverFabrik.ts -->
<g id="edge20" class="edge">
<title>src/server.ts&#45;&gt;src/serverFabrik.ts</title>
<path fill="none" stroke="#000000" d="M112.0561,-137.5C125.3456,-137.5 141.7223,-137.5 157.0097,-137.5"/>
<polygon fill="#000000" stroke="#000000" points="157.368,-141.0001 167.368,-137.5 157.3679,-134.0001 157.368,-141.0001"/>
</g>
<!-- src/serverFabrik.ts&#45;&gt;src/implementations/GameModel.ts -->
<g id="edge22" class="edge">
<title>src/serverFabrik.ts&#45;&gt;src/implementations/GameModel.ts</title>
<path fill="none" stroke="#000000" d="M242.6949,-137.5C253.4362,-137.5 265.2805,-137.5 276.5289,-137.5"/>
<polygon fill="#000000" stroke="#000000" points="276.6429,-141.0001 286.6429,-137.5 276.6428,-134.0001 276.6429,-141.0001"/>
</g>
<!-- src/serverFabrik.ts&#45;&gt;src/implementations/ServerAdapter.ts -->
<g id="edge23" class="edge">
<title>src/serverFabrik.ts&#45;&gt;src/implementations/ServerAdapter.ts</title>
<path fill="none" stroke="#000000" d="M240.1024,-146.0441C252.2223,-148.9972 265.9794,-152.3491 278.7989,-155.4727"/>
<polygon fill="#000000" stroke="#000000" points="278.2854,-158.9499 288.8298,-157.9168 279.9426,-152.1489 278.2854,-158.9499"/>
</g>
<!-- src/serverFabrik.ts&#45;&gt;src/implementations/ServerController.ts -->
<g id="edge24" class="edge">
<title>src/serverFabrik.ts&#45;&gt;src/implementations/ServerController.ts</title>
<path fill="none" stroke="#000000" d="M240.1024,-128.9559C252.2223,-126.0028 265.9794,-122.6509 278.7989,-119.5273"/>
<polygon fill="#000000" stroke="#000000" points="279.9426,-122.8511 288.8298,-117.0832 278.2854,-116.0501 279.9426,-122.8511"/>
</g>
<!-- src/types/express&#45;flash.d.ts -->
<g id="node52" class="node">
<title>src/types/express&#45;flash.d.ts</title>
<g id="a_node52"><a xlink:href="src/types/express-flash.d.ts" xlink:title="express&#45;flash.d.ts">
<path fill="#ffffcc" stroke="#000000" d="M122.1271,-221C122.1271,-221 47.4022,-221 47.4022,-221 44.5689,-221 41.7355,-218.1667 41.7355,-215.3333 41.7355,-215.3333 41.7355,-209.6667 41.7355,-209.6667 41.7355,-206.8333 44.5689,-204 47.4022,-204 47.4022,-204 122.1271,-204 122.1271,-204 124.9604,-204 127.7938,-206.8333 127.7938,-209.6667 127.7938,-209.6667 127.7938,-215.3333 127.7938,-215.3333 127.7938,-218.1667 124.9604,-221 122.1271,-221"/>
<text text-anchor="middle" x="84.7646" y="-209.8" font-family="Helvetica,sans-Serif" font-size="9.00" fill="#000000">express&#45;flash.d.ts</text>
</a>
</g>
</g>
</g>
</svg>
